M48
; DRILL file {KiCad 5.1.10-1.fc33} date Sun May 23 01:00:38 2021
; FORMAT={-:-/ absolute / metric / decimal}
; #@! TF.CreationDate,2021-05-23T01:00:38+02:00
; #@! TF.GenerationSoftware,Kicad,Pcbnew,5.1.10-1.fc33
; #@! TF.FileFunction,Plated,1,2,PTH
FMAT,2
METRIC
T1C0.400
T2C0.800
T3C0.900
T4C0.950
T5C1.000
T6C1.100
T7C1.854
T8C2.600
T9C3.100
%
G90
G05
T1
X200.025Y-127.635
X200.66Y-161.29
X202.565Y-151.892
X202.565Y-154.305
X210.185Y-161.29
X210.82Y-124.46
X212.725Y-149.225
T2
X194.183Y-137.795
X194.183Y-145.415
T3
X197.485Y-139.446
X205.105Y-139.446
T4
X195.326Y-157.56
X195.326Y-160.06
X195.326Y-162.56
T5
X197.485Y-142.875
X199.851Y-147.32
X200.025Y-142.875
X200.533Y-158.703
X200.533Y-163.703
X202.565Y-142.875
X204.851Y-147.32
X204.851Y-159.933
X204.851Y-162.433
X205.105Y-142.875
X207.645Y-142.875
X208.28Y-146.812
X208.28Y-149.352
X208.28Y-151.892
X208.28Y-154.432
X210.185Y-142.875
X210.439Y-158.703
X210.439Y-163.703
X212.17Y-136.525
X212.17Y-139.7
X212.725Y-142.875
X215.011Y-159.806
X215.011Y-162.306
X215.265Y-142.875
X217.17Y-121.92
X217.17Y-124.46
X217.17Y-127.0
X217.17Y-129.54
X217.17Y-132.08
X217.17Y-136.525
X217.17Y-139.7
T6
X194.945Y-151.13
X205.105Y-151.13
T7
X196.469Y-124.46
X196.469Y-129.159
X196.469Y-133.858
T8
X205.105Y-127.953
X209.906Y-130.952
T9
X205.105Y-134.153
T0
M30
