G04 #@! TF.GenerationSoftware,KiCad,Pcbnew,5.1.10-1.fc33*
G04 #@! TF.CreationDate,2021-05-23T00:59:55+02:00*
G04 #@! TF.ProjectId,Omega_DC-DC_adaptor_1.5,4f6d6567-615f-4444-932d-44435f616461,rev?*
G04 #@! TF.SameCoordinates,Original*
G04 #@! TF.FileFunction,Legend,Top*
G04 #@! TF.FilePolarity,Positive*
%FSLAX46Y46*%
G04 Gerber Fmt 4.6, Leading zero omitted, Abs format (unit mm)*
G04 Created by KiCad (PCBNEW 5.1.10-1.fc33) date 2021-05-23 00:59:55*
%MOMM*%
%LPD*%
G01*
G04 APERTURE LIST*
%ADD10C,0.150000*%
%ADD11C,0.120000*%
%ADD12C,0.203200*%
G04 APERTURE END LIST*
D10*
X201438571Y-123007380D02*
X201438571Y-122007380D01*
X201676666Y-122007380D01*
X201819523Y-122055000D01*
X201914761Y-122150238D01*
X201962380Y-122245476D01*
X202010000Y-122435952D01*
X202010000Y-122578809D01*
X201962380Y-122769285D01*
X201914761Y-122864523D01*
X201819523Y-122959761D01*
X201676666Y-123007380D01*
X201438571Y-123007380D01*
X203010000Y-122912142D02*
X202962380Y-122959761D01*
X202819523Y-123007380D01*
X202724285Y-123007380D01*
X202581428Y-122959761D01*
X202486190Y-122864523D01*
X202438571Y-122769285D01*
X202390952Y-122578809D01*
X202390952Y-122435952D01*
X202438571Y-122245476D01*
X202486190Y-122150238D01*
X202581428Y-122055000D01*
X202724285Y-122007380D01*
X202819523Y-122007380D01*
X202962380Y-122055000D01*
X203010000Y-122102619D01*
X204629047Y-123007380D02*
X204629047Y-122483571D01*
X204581428Y-122388333D01*
X204486190Y-122340714D01*
X204295714Y-122340714D01*
X204200476Y-122388333D01*
X204629047Y-122959761D02*
X204533809Y-123007380D01*
X204295714Y-123007380D01*
X204200476Y-122959761D01*
X204152857Y-122864523D01*
X204152857Y-122769285D01*
X204200476Y-122674047D01*
X204295714Y-122626428D01*
X204533809Y-122626428D01*
X204629047Y-122578809D01*
X205533809Y-123007380D02*
X205533809Y-122007380D01*
X205533809Y-122959761D02*
X205438571Y-123007380D01*
X205248095Y-123007380D01*
X205152857Y-122959761D01*
X205105238Y-122912142D01*
X205057619Y-122816904D01*
X205057619Y-122531190D01*
X205105238Y-122435952D01*
X205152857Y-122388333D01*
X205248095Y-122340714D01*
X205438571Y-122340714D01*
X205533809Y-122388333D01*
X206438571Y-123007380D02*
X206438571Y-122483571D01*
X206390952Y-122388333D01*
X206295714Y-122340714D01*
X206105238Y-122340714D01*
X206010000Y-122388333D01*
X206438571Y-122959761D02*
X206343333Y-123007380D01*
X206105238Y-123007380D01*
X206010000Y-122959761D01*
X205962380Y-122864523D01*
X205962380Y-122769285D01*
X206010000Y-122674047D01*
X206105238Y-122626428D01*
X206343333Y-122626428D01*
X206438571Y-122578809D01*
X206914761Y-122340714D02*
X206914761Y-123340714D01*
X206914761Y-122388333D02*
X207010000Y-122340714D01*
X207200476Y-122340714D01*
X207295714Y-122388333D01*
X207343333Y-122435952D01*
X207390952Y-122531190D01*
X207390952Y-122816904D01*
X207343333Y-122912142D01*
X207295714Y-122959761D01*
X207200476Y-123007380D01*
X207010000Y-123007380D01*
X206914761Y-122959761D01*
X207676666Y-122340714D02*
X208057619Y-122340714D01*
X207819523Y-122007380D02*
X207819523Y-122864523D01*
X207867142Y-122959761D01*
X207962380Y-123007380D01*
X208057619Y-123007380D01*
X208533809Y-123007380D02*
X208438571Y-122959761D01*
X208390952Y-122912142D01*
X208343333Y-122816904D01*
X208343333Y-122531190D01*
X208390952Y-122435952D01*
X208438571Y-122388333D01*
X208533809Y-122340714D01*
X208676666Y-122340714D01*
X208771904Y-122388333D01*
X208819523Y-122435952D01*
X208867142Y-122531190D01*
X208867142Y-122816904D01*
X208819523Y-122912142D01*
X208771904Y-122959761D01*
X208676666Y-123007380D01*
X208533809Y-123007380D01*
X209295714Y-123007380D02*
X209295714Y-122340714D01*
X209295714Y-122531190D02*
X209343333Y-122435952D01*
X209390952Y-122388333D01*
X209486190Y-122340714D01*
X209581428Y-122340714D01*
X211200476Y-123007380D02*
X210629047Y-123007380D01*
X210914761Y-123007380D02*
X210914761Y-122007380D01*
X210819523Y-122150238D01*
X210724285Y-122245476D01*
X210629047Y-122293095D01*
X211629047Y-122912142D02*
X211676666Y-122959761D01*
X211629047Y-123007380D01*
X211581428Y-122959761D01*
X211629047Y-122912142D01*
X211629047Y-123007380D01*
X212581428Y-122007380D02*
X212105238Y-122007380D01*
X212057619Y-122483571D01*
X212105238Y-122435952D01*
X212200476Y-122388333D01*
X212438571Y-122388333D01*
X212533809Y-122435952D01*
X212581428Y-122483571D01*
X212629047Y-122578809D01*
X212629047Y-122816904D01*
X212581428Y-122912142D01*
X212533809Y-122959761D01*
X212438571Y-123007380D01*
X212200476Y-123007380D01*
X212105238Y-122959761D01*
X212057619Y-122912142D01*
X202819523Y-121737380D02*
X202819523Y-120737380D01*
X203152857Y-121451666D01*
X203486190Y-120737380D01*
X203486190Y-121737380D01*
X203914761Y-121689761D02*
X204057619Y-121737380D01*
X204295714Y-121737380D01*
X204390952Y-121689761D01*
X204438571Y-121642142D01*
X204486190Y-121546904D01*
X204486190Y-121451666D01*
X204438571Y-121356428D01*
X204390952Y-121308809D01*
X204295714Y-121261190D01*
X204105238Y-121213571D01*
X204010000Y-121165952D01*
X203962380Y-121118333D01*
X203914761Y-121023095D01*
X203914761Y-120927857D01*
X203962380Y-120832619D01*
X204010000Y-120785000D01*
X204105238Y-120737380D01*
X204343333Y-120737380D01*
X204486190Y-120785000D01*
X204819523Y-120737380D02*
X205486190Y-121737380D01*
X205486190Y-120737380D02*
X204819523Y-121737380D01*
X205867142Y-121737380D02*
X205867142Y-121070714D01*
X205867142Y-121165952D02*
X205914761Y-121118333D01*
X206010000Y-121070714D01*
X206152857Y-121070714D01*
X206248095Y-121118333D01*
X206295714Y-121213571D01*
X206295714Y-121737380D01*
X206295714Y-121213571D02*
X206343333Y-121118333D01*
X206438571Y-121070714D01*
X206581428Y-121070714D01*
X206676666Y-121118333D01*
X206724285Y-121213571D01*
X206724285Y-121737380D01*
X207629047Y-121737380D02*
X207629047Y-121213571D01*
X207581428Y-121118333D01*
X207486190Y-121070714D01*
X207295714Y-121070714D01*
X207200476Y-121118333D01*
X207629047Y-121689761D02*
X207533809Y-121737380D01*
X207295714Y-121737380D01*
X207200476Y-121689761D01*
X207152857Y-121594523D01*
X207152857Y-121499285D01*
X207200476Y-121404047D01*
X207295714Y-121356428D01*
X207533809Y-121356428D01*
X207629047Y-121308809D01*
X208105238Y-121737380D02*
X208105238Y-120737380D01*
X208200476Y-121356428D02*
X208486190Y-121737380D01*
X208486190Y-121070714D02*
X208105238Y-121451666D01*
X209295714Y-121689761D02*
X209200476Y-121737380D01*
X209010000Y-121737380D01*
X208914761Y-121689761D01*
X208867142Y-121594523D01*
X208867142Y-121213571D01*
X208914761Y-121118333D01*
X209010000Y-121070714D01*
X209200476Y-121070714D01*
X209295714Y-121118333D01*
X209343333Y-121213571D01*
X209343333Y-121308809D01*
X208867142Y-121404047D01*
X209771904Y-121737380D02*
X209771904Y-121070714D01*
X209771904Y-121261190D02*
X209819523Y-121165952D01*
X209867142Y-121118333D01*
X209962380Y-121070714D01*
X210057619Y-121070714D01*
X210343333Y-121689761D02*
X210438571Y-121737380D01*
X210629047Y-121737380D01*
X210724285Y-121689761D01*
X210771904Y-121594523D01*
X210771904Y-121546904D01*
X210724285Y-121451666D01*
X210629047Y-121404047D01*
X210486190Y-121404047D01*
X210390952Y-121356428D01*
X210343333Y-121261190D01*
X210343333Y-121213571D01*
X210390952Y-121118333D01*
X210486190Y-121070714D01*
X210629047Y-121070714D01*
X210724285Y-121118333D01*
X211200476Y-121642142D02*
X211248095Y-121689761D01*
X211200476Y-121737380D01*
X211152857Y-121689761D01*
X211200476Y-121642142D01*
X211200476Y-121737380D01*
X211200476Y-121356428D02*
X211152857Y-120785000D01*
X211200476Y-120737380D01*
X211248095Y-120785000D01*
X211200476Y-121356428D01*
X211200476Y-120737380D01*
X212375476Y-128182619D02*
X212851666Y-128182619D01*
X212899285Y-127706428D01*
X212851666Y-127754047D01*
X212756428Y-127801666D01*
X212518333Y-127801666D01*
X212423095Y-127754047D01*
X212375476Y-127706428D01*
X212327857Y-127611190D01*
X212327857Y-127373095D01*
X212375476Y-127277857D01*
X212423095Y-127230238D01*
X212518333Y-127182619D01*
X212756428Y-127182619D01*
X212851666Y-127230238D01*
X212899285Y-127277857D01*
X212042142Y-128182619D02*
X211708809Y-127182619D01*
X211375476Y-128182619D01*
X210089761Y-128182619D02*
X209899285Y-128182619D01*
X209804047Y-128135000D01*
X209708809Y-128039761D01*
X209661190Y-127849285D01*
X209661190Y-127515952D01*
X209708809Y-127325476D01*
X209804047Y-127230238D01*
X209899285Y-127182619D01*
X210089761Y-127182619D01*
X210185000Y-127230238D01*
X210280238Y-127325476D01*
X210327857Y-127515952D01*
X210327857Y-127849285D01*
X210280238Y-128039761D01*
X210185000Y-128135000D01*
X210089761Y-128182619D01*
X209232619Y-127849285D02*
X209232619Y-127182619D01*
X209232619Y-127754047D02*
X209185000Y-127801666D01*
X209089761Y-127849285D01*
X208946904Y-127849285D01*
X208851666Y-127801666D01*
X208804047Y-127706428D01*
X208804047Y-127182619D01*
X208185000Y-127182619D02*
X208280238Y-127230238D01*
X208327857Y-127325476D01*
X208327857Y-128182619D01*
X207899285Y-127849285D02*
X207661190Y-127182619D01*
X207423095Y-127849285D02*
X207661190Y-127182619D01*
X207756428Y-126944523D01*
X207804047Y-126896904D01*
X207899285Y-126849285D01*
D11*
X192866000Y-165120000D02*
X198836000Y-165120000D01*
X198836000Y-165120000D02*
X198836000Y-155000000D01*
X198836000Y-155000000D02*
X192866000Y-155000000D01*
X192866000Y-155000000D02*
X192866000Y-165120000D01*
X192876000Y-161810000D02*
X193626000Y-161810000D01*
X193626000Y-161810000D02*
X193626000Y-158310000D01*
X193626000Y-158310000D02*
X192876000Y-158310000D01*
X192876000Y-158310000D02*
X192876000Y-161810000D01*
X192876000Y-165110000D02*
X193626000Y-165110000D01*
X193626000Y-165110000D02*
X193626000Y-163310000D01*
X193626000Y-163310000D02*
X192876000Y-163310000D01*
X192876000Y-163310000D02*
X192876000Y-165110000D01*
X192876000Y-156810000D02*
X193626000Y-156810000D01*
X193626000Y-156810000D02*
X193626000Y-155010000D01*
X193626000Y-155010000D02*
X192876000Y-155010000D01*
X192876000Y-155010000D02*
X192876000Y-156810000D01*
X195126000Y-165110000D02*
X195126000Y-164360000D01*
X195126000Y-164360000D02*
X198076000Y-164360000D01*
X198076000Y-164360000D02*
X198076000Y-160060000D01*
X195126000Y-155010000D02*
X195126000Y-155760000D01*
X195126000Y-155760000D02*
X198076000Y-155760000D01*
X198076000Y-155760000D02*
X198076000Y-160060000D01*
X192576000Y-164160000D02*
X192576000Y-165410000D01*
X192576000Y-165410000D02*
X193826000Y-165410000D01*
X202391000Y-164993000D02*
X208361000Y-164993000D01*
X208361000Y-164993000D02*
X208361000Y-157373000D01*
X208361000Y-157373000D02*
X202391000Y-157373000D01*
X202391000Y-157373000D02*
X202391000Y-164993000D01*
X202401000Y-161683000D02*
X203151000Y-161683000D01*
X203151000Y-161683000D02*
X203151000Y-160683000D01*
X203151000Y-160683000D02*
X202401000Y-160683000D01*
X202401000Y-160683000D02*
X202401000Y-161683000D01*
X202401000Y-164983000D02*
X203151000Y-164983000D01*
X203151000Y-164983000D02*
X203151000Y-163183000D01*
X203151000Y-163183000D02*
X202401000Y-163183000D01*
X202401000Y-163183000D02*
X202401000Y-164983000D01*
X202401000Y-159183000D02*
X203151000Y-159183000D01*
X203151000Y-159183000D02*
X203151000Y-157383000D01*
X203151000Y-157383000D02*
X202401000Y-157383000D01*
X202401000Y-157383000D02*
X202401000Y-159183000D01*
X204651000Y-164983000D02*
X204651000Y-164233000D01*
X204651000Y-164233000D02*
X207601000Y-164233000D01*
X207601000Y-164233000D02*
X207601000Y-161183000D01*
X204651000Y-157383000D02*
X204651000Y-158133000D01*
X204651000Y-158133000D02*
X207601000Y-158133000D01*
X207601000Y-158133000D02*
X207601000Y-161183000D01*
X202101000Y-164033000D02*
X202101000Y-165283000D01*
X202101000Y-165283000D02*
X203351000Y-165283000D01*
X212551000Y-164866000D02*
X218521000Y-164866000D01*
X218521000Y-164866000D02*
X218521000Y-157246000D01*
X218521000Y-157246000D02*
X212551000Y-157246000D01*
X212551000Y-157246000D02*
X212551000Y-164866000D01*
X212561000Y-161556000D02*
X213311000Y-161556000D01*
X213311000Y-161556000D02*
X213311000Y-160556000D01*
X213311000Y-160556000D02*
X212561000Y-160556000D01*
X212561000Y-160556000D02*
X212561000Y-161556000D01*
X212561000Y-164856000D02*
X213311000Y-164856000D01*
X213311000Y-164856000D02*
X213311000Y-163056000D01*
X213311000Y-163056000D02*
X212561000Y-163056000D01*
X212561000Y-163056000D02*
X212561000Y-164856000D01*
X212561000Y-159056000D02*
X213311000Y-159056000D01*
X213311000Y-159056000D02*
X213311000Y-157256000D01*
X213311000Y-157256000D02*
X212561000Y-157256000D01*
X212561000Y-157256000D02*
X212561000Y-159056000D01*
X214811000Y-164856000D02*
X214811000Y-164106000D01*
X214811000Y-164106000D02*
X217761000Y-164106000D01*
X217761000Y-164106000D02*
X217761000Y-161056000D01*
X214811000Y-157256000D02*
X214811000Y-158006000D01*
X214811000Y-158006000D02*
X217761000Y-158006000D01*
X217761000Y-158006000D02*
X217761000Y-161056000D01*
X212261000Y-163906000D02*
X212261000Y-165156000D01*
X212261000Y-165156000D02*
X213511000Y-165156000D01*
X192813000Y-144875000D02*
X193143000Y-144875000D01*
X192813000Y-138335000D02*
X192813000Y-144875000D01*
X193143000Y-138335000D02*
X192813000Y-138335000D01*
X195553000Y-144875000D02*
X195223000Y-144875000D01*
X195553000Y-138335000D02*
X195553000Y-144875000D01*
X195223000Y-138335000D02*
X195553000Y-138335000D01*
X201965000Y-152600000D02*
X201965000Y-149660000D01*
X201725000Y-152600000D02*
X201725000Y-149660000D01*
X201845000Y-152600000D02*
X201845000Y-149660000D01*
X196285000Y-151130000D02*
X197305000Y-151130000D01*
X203765000Y-151130000D02*
X202745000Y-151130000D01*
X197305000Y-152600000D02*
X202745000Y-152600000D01*
X197305000Y-149660000D02*
X197305000Y-152600000D01*
X202745000Y-149660000D02*
X197305000Y-149660000D01*
X202745000Y-152600000D02*
X202745000Y-149660000D01*
X217170000Y-120590000D02*
X218500000Y-120590000D01*
X218500000Y-120590000D02*
X218500000Y-121920000D01*
X218500000Y-123190000D02*
X218500000Y-133410000D01*
X215840000Y-133410000D02*
X218500000Y-133410000D01*
X215840000Y-123190000D02*
X215840000Y-133410000D01*
X215840000Y-123190000D02*
X218500000Y-123190000D01*
X210800000Y-141070000D02*
X210800000Y-138330000D01*
X218540000Y-141070000D02*
X218540000Y-138330000D01*
X218540000Y-138330000D02*
X210800000Y-138330000D01*
X218540000Y-141070000D02*
X210800000Y-141070000D01*
X218540000Y-137895000D02*
X210800000Y-137895000D01*
X218540000Y-135155000D02*
X210800000Y-135155000D01*
X218540000Y-137895000D02*
X218540000Y-135155000D01*
X210800000Y-137895000D02*
X210800000Y-135155000D01*
X204015000Y-140586000D02*
X204015000Y-140916000D01*
X204015000Y-140916000D02*
X198575000Y-140916000D01*
X198575000Y-140916000D02*
X198575000Y-140586000D01*
X204015000Y-138306000D02*
X204015000Y-137976000D01*
X204015000Y-137976000D02*
X198575000Y-137976000D01*
X198575000Y-137976000D02*
X198575000Y-138306000D01*
X203115000Y-140916000D02*
X203115000Y-137976000D01*
X202995000Y-140916000D02*
X202995000Y-137976000D01*
X203235000Y-140916000D02*
X203235000Y-137976000D01*
D12*
X197739000Y-129159000D02*
X197993000Y-131953000D01*
X195199000Y-129159000D02*
X194945000Y-131953000D01*
X200406000Y-122682000D02*
X192532000Y-122682000D01*
X192532000Y-122682000D02*
X192532000Y-135636000D01*
X192532000Y-135636000D02*
X200406000Y-135636000D01*
X200406000Y-135636000D02*
X200406000Y-122682000D01*
X197739000Y-129159000D02*
G75*
G03*
X195199000Y-129159000I-1270000J0D01*
G01*
X194945000Y-131953000D02*
G75*
G03*
X197993000Y-131953000I1524000J0D01*
G01*
X195012116Y-131239646D02*
G75*
G02*
X196469000Y-126619000I1456884J2080646D01*
G01*
X197925884Y-131239646D02*
G75*
G03*
X196469000Y-126619000I-1456884J2080646D01*
G01*
X194881500Y-131908631D02*
G75*
G02*
X196469000Y-125984000I1587500J2749631D01*
G01*
X198056500Y-131908631D02*
G75*
G03*
X196469000Y-125984000I-1587500J2749631D01*
G01*
D11*
X209720000Y-145482000D02*
X209720000Y-155762000D01*
X209720000Y-155762000D02*
X212380000Y-155762000D01*
X212380000Y-155762000D02*
X212380000Y-145482000D01*
X212380000Y-145482000D02*
X209720000Y-145482000D01*
X212380000Y-146432000D02*
X218380000Y-146432000D01*
X218380000Y-146432000D02*
X218380000Y-147192000D01*
X218380000Y-147192000D02*
X212380000Y-147192000D01*
X212380000Y-146492000D02*
X218380000Y-146492000D01*
X212380000Y-146612000D02*
X218380000Y-146612000D01*
X212380000Y-146732000D02*
X218380000Y-146732000D01*
X212380000Y-146852000D02*
X218380000Y-146852000D01*
X212380000Y-146972000D02*
X218380000Y-146972000D01*
X212380000Y-147092000D02*
X218380000Y-147092000D01*
X209390000Y-146432000D02*
X209720000Y-146432000D01*
X209390000Y-147192000D02*
X209720000Y-147192000D01*
X209720000Y-148082000D02*
X212380000Y-148082000D01*
X212380000Y-148972000D02*
X218380000Y-148972000D01*
X218380000Y-148972000D02*
X218380000Y-149732000D01*
X218380000Y-149732000D02*
X212380000Y-149732000D01*
X209322929Y-148972000D02*
X209720000Y-148972000D01*
X209322929Y-149732000D02*
X209720000Y-149732000D01*
X209720000Y-150622000D02*
X212380000Y-150622000D01*
X212380000Y-151512000D02*
X218380000Y-151512000D01*
X218380000Y-151512000D02*
X218380000Y-152272000D01*
X218380000Y-152272000D02*
X212380000Y-152272000D01*
X209322929Y-151512000D02*
X209720000Y-151512000D01*
X209322929Y-152272000D02*
X209720000Y-152272000D01*
X209720000Y-153162000D02*
X212380000Y-153162000D01*
X212380000Y-154052000D02*
X218380000Y-154052000D01*
X218380000Y-154052000D02*
X218380000Y-154812000D01*
X218380000Y-154812000D02*
X212380000Y-154812000D01*
X209322929Y-154052000D02*
X209720000Y-154052000D01*
X209322929Y-154812000D02*
X209720000Y-154812000D01*
X207010000Y-146812000D02*
X207010000Y-145542000D01*
X207010000Y-145542000D02*
X208280000Y-145542000D01*
X206221000Y-148690000D02*
X198481000Y-148690000D01*
X206221000Y-145950000D02*
X198481000Y-145950000D01*
X206221000Y-148690000D02*
X206221000Y-145950000D01*
X198481000Y-148690000D02*
X198481000Y-145950000D01*
X199163000Y-165073000D02*
X199163000Y-157333000D01*
X201903000Y-165073000D02*
X201903000Y-157333000D01*
X199163000Y-165073000D02*
X201903000Y-165073000D01*
X199163000Y-157333000D02*
X201903000Y-157333000D01*
X209069000Y-165073000D02*
X209069000Y-157333000D01*
X211809000Y-165073000D02*
X211809000Y-157333000D01*
X209069000Y-165073000D02*
X211809000Y-165073000D01*
X209069000Y-157333000D02*
X211809000Y-157333000D01*
X198755000Y-144205000D02*
X198755000Y-141545000D01*
X198755000Y-144205000D02*
X216595000Y-144205000D01*
X216595000Y-144205000D02*
X216595000Y-141545000D01*
X198755000Y-141545000D02*
X216595000Y-141545000D01*
X196155000Y-141545000D02*
X197485000Y-141545000D01*
X196155000Y-142875000D02*
X196155000Y-141545000D01*
D10*
X195246666Y-153757380D02*
X195246666Y-154471666D01*
X195199047Y-154614523D01*
X195103809Y-154709761D01*
X194960952Y-154757380D01*
X194865714Y-154757380D01*
X196199047Y-153757380D02*
X195722857Y-153757380D01*
X195675238Y-154233571D01*
X195722857Y-154185952D01*
X195818095Y-154138333D01*
X196056190Y-154138333D01*
X196151428Y-154185952D01*
X196199047Y-154233571D01*
X196246666Y-154328809D01*
X196246666Y-154566904D01*
X196199047Y-154662142D01*
X196151428Y-154709761D01*
X196056190Y-154757380D01*
X195818095Y-154757380D01*
X195722857Y-154709761D01*
X195675238Y-154662142D01*
X204771666Y-155662380D02*
X204771666Y-156376666D01*
X204724047Y-156519523D01*
X204628809Y-156614761D01*
X204485952Y-156662380D01*
X204390714Y-156662380D01*
X205152619Y-155662380D02*
X205771666Y-155662380D01*
X205438333Y-156043333D01*
X205581190Y-156043333D01*
X205676428Y-156090952D01*
X205724047Y-156138571D01*
X205771666Y-156233809D01*
X205771666Y-156471904D01*
X205724047Y-156567142D01*
X205676428Y-156614761D01*
X205581190Y-156662380D01*
X205295476Y-156662380D01*
X205200238Y-156614761D01*
X205152619Y-156567142D01*
X214931666Y-155662380D02*
X214931666Y-156376666D01*
X214884047Y-156519523D01*
X214788809Y-156614761D01*
X214645952Y-156662380D01*
X214550714Y-156662380D01*
X215360238Y-155757619D02*
X215407857Y-155710000D01*
X215503095Y-155662380D01*
X215741190Y-155662380D01*
X215836428Y-155710000D01*
X215884047Y-155757619D01*
X215931666Y-155852857D01*
X215931666Y-155948095D01*
X215884047Y-156090952D01*
X215312619Y-156662380D01*
X215931666Y-156662380D01*
X194762380Y-141771666D02*
X194286190Y-142105000D01*
X194762380Y-142343095D02*
X193762380Y-142343095D01*
X193762380Y-141962142D01*
X193810000Y-141866904D01*
X193857619Y-141819285D01*
X193952857Y-141771666D01*
X194095714Y-141771666D01*
X194190952Y-141819285D01*
X194238571Y-141866904D01*
X194286190Y-141962142D01*
X194286190Y-142343095D01*
X194762380Y-140819285D02*
X194762380Y-141390714D01*
X194762380Y-141105000D02*
X193762380Y-141105000D01*
X193905238Y-141200238D01*
X194000476Y-141295476D01*
X194048095Y-141390714D01*
X198778904Y-151582380D02*
X198778904Y-150582380D01*
X199017000Y-150582380D01*
X199159857Y-150630000D01*
X199255095Y-150725238D01*
X199302714Y-150820476D01*
X199350333Y-151010952D01*
X199350333Y-151153809D01*
X199302714Y-151344285D01*
X199255095Y-151439523D01*
X199159857Y-151534761D01*
X199017000Y-151582380D01*
X198778904Y-151582380D01*
X200302714Y-151582380D02*
X199731285Y-151582380D01*
X200017000Y-151582380D02*
X200017000Y-150582380D01*
X199921761Y-150725238D01*
X199826523Y-150820476D01*
X199731285Y-150868095D01*
X204843095Y-153682380D02*
X204843095Y-152682380D01*
X205414523Y-153682380D02*
X204985952Y-153110952D01*
X205414523Y-152682380D02*
X204843095Y-153253809D01*
X214082380Y-122253333D02*
X214796666Y-122253333D01*
X214939523Y-122300952D01*
X215034761Y-122396190D01*
X215082380Y-122539047D01*
X215082380Y-122634285D01*
X214082380Y-121348571D02*
X214082380Y-121539047D01*
X214130000Y-121634285D01*
X214177619Y-121681904D01*
X214320476Y-121777142D01*
X214510952Y-121824761D01*
X214891904Y-121824761D01*
X214987142Y-121777142D01*
X215034761Y-121729523D01*
X215082380Y-121634285D01*
X215082380Y-121443809D01*
X215034761Y-121348571D01*
X214987142Y-121300952D01*
X214891904Y-121253333D01*
X214653809Y-121253333D01*
X214558571Y-121300952D01*
X214510952Y-121348571D01*
X214463333Y-121443809D01*
X214463333Y-121634285D01*
X214510952Y-121729523D01*
X214558571Y-121777142D01*
X214653809Y-121824761D01*
X214296666Y-139628571D02*
X213963333Y-139628571D01*
X213963333Y-140152380D02*
X213963333Y-139152380D01*
X214439523Y-139152380D01*
X215296666Y-139152380D02*
X214820476Y-139152380D01*
X214772857Y-139628571D01*
X214820476Y-139580952D01*
X214915714Y-139533333D01*
X215153809Y-139533333D01*
X215249047Y-139580952D01*
X215296666Y-139628571D01*
X215344285Y-139723809D01*
X215344285Y-139961904D01*
X215296666Y-140057142D01*
X215249047Y-140104761D01*
X215153809Y-140152380D01*
X214915714Y-140152380D01*
X214820476Y-140104761D01*
X214772857Y-140057142D01*
X214376666Y-136453571D02*
X214043333Y-136453571D01*
X214043333Y-136977380D02*
X214043333Y-135977380D01*
X214519523Y-135977380D01*
X215329047Y-136310714D02*
X215329047Y-136977380D01*
X215090952Y-135929761D02*
X214852857Y-136644047D01*
X215471904Y-136644047D01*
X200556904Y-140152380D02*
X200556904Y-139152380D01*
X200795000Y-139152380D01*
X200937857Y-139200000D01*
X201033095Y-139295238D01*
X201080714Y-139390476D01*
X201128333Y-139580952D01*
X201128333Y-139723809D01*
X201080714Y-139914285D01*
X201033095Y-140009523D01*
X200937857Y-140104761D01*
X200795000Y-140152380D01*
X200556904Y-140152380D01*
X201509285Y-139247619D02*
X201556904Y-139200000D01*
X201652142Y-139152380D01*
X201890238Y-139152380D01*
X201985476Y-139200000D01*
X202033095Y-139247619D01*
X202080714Y-139342857D01*
X202080714Y-139438095D01*
X202033095Y-139580952D01*
X201461666Y-140152380D01*
X202080714Y-140152380D01*
X204843095Y-141798380D02*
X204843095Y-140798380D01*
X205414523Y-141798380D02*
X204985952Y-141226952D01*
X205414523Y-140798380D02*
X204843095Y-141369809D01*
D12*
X195114333Y-121696238D02*
X195259476Y-121744619D01*
X195501380Y-121744619D01*
X195598142Y-121696238D01*
X195646523Y-121647857D01*
X195694904Y-121551095D01*
X195694904Y-121454333D01*
X195646523Y-121357571D01*
X195598142Y-121309190D01*
X195501380Y-121260809D01*
X195307857Y-121212428D01*
X195211095Y-121164047D01*
X195162714Y-121115666D01*
X195114333Y-121018904D01*
X195114333Y-120922142D01*
X195162714Y-120825380D01*
X195211095Y-120777000D01*
X195307857Y-120728619D01*
X195549761Y-120728619D01*
X195694904Y-120777000D01*
X196033571Y-120728619D02*
X196275476Y-121744619D01*
X196469000Y-121018904D01*
X196662523Y-121744619D01*
X196904428Y-120728619D01*
X197823666Y-121744619D02*
X197243095Y-121744619D01*
X197533380Y-121744619D02*
X197533380Y-120728619D01*
X197436619Y-120873761D01*
X197339857Y-120970523D01*
X197243095Y-121018904D01*
D10*
X210272380Y-149558333D02*
X210986666Y-149558333D01*
X211129523Y-149605952D01*
X211224761Y-149701190D01*
X211272380Y-149844047D01*
X211272380Y-149939285D01*
X210605714Y-148653571D02*
X211272380Y-148653571D01*
X210224761Y-148891666D02*
X210939047Y-149129761D01*
X210939047Y-148510714D01*
X202017666Y-146994571D02*
X201684333Y-146994571D01*
X201684333Y-147518380D02*
X201684333Y-146518380D01*
X202160523Y-146518380D01*
X202446238Y-146518380D02*
X203065285Y-146518380D01*
X202731952Y-146899333D01*
X202874809Y-146899333D01*
X202970047Y-146946952D01*
X203017666Y-146994571D01*
X203065285Y-147089809D01*
X203065285Y-147327904D01*
X203017666Y-147423142D01*
X202970047Y-147470761D01*
X202874809Y-147518380D01*
X202589095Y-147518380D01*
X202493857Y-147470761D01*
X202446238Y-147423142D01*
X199953571Y-161536333D02*
X199953571Y-161869666D01*
X200477380Y-161869666D02*
X199477380Y-161869666D01*
X199477380Y-161393476D01*
X199572619Y-161060142D02*
X199525000Y-161012523D01*
X199477380Y-160917285D01*
X199477380Y-160679190D01*
X199525000Y-160583952D01*
X199572619Y-160536333D01*
X199667857Y-160488714D01*
X199763095Y-160488714D01*
X199905952Y-160536333D01*
X200477380Y-161107761D01*
X200477380Y-160488714D01*
X210113571Y-161536333D02*
X210113571Y-161869666D01*
X210637380Y-161869666D02*
X209637380Y-161869666D01*
X209637380Y-161393476D01*
X210637380Y-160488714D02*
X210637380Y-161060142D01*
X210637380Y-160774428D02*
X209637380Y-160774428D01*
X209780238Y-160869666D01*
X209875476Y-160964904D01*
X209923095Y-161060142D01*
X196040476Y-144867380D02*
X196040476Y-145581666D01*
X195992857Y-145724523D01*
X195897619Y-145819761D01*
X195754761Y-145867380D01*
X195659523Y-145867380D01*
X197040476Y-145867380D02*
X196469047Y-145867380D01*
X196754761Y-145867380D02*
X196754761Y-144867380D01*
X196659523Y-145010238D01*
X196564285Y-145105476D01*
X196469047Y-145153095D01*
X197659523Y-144867380D02*
X197754761Y-144867380D01*
X197850000Y-144915000D01*
X197897619Y-144962619D01*
X197945238Y-145057857D01*
X197992857Y-145248333D01*
X197992857Y-145486428D01*
X197945238Y-145676904D01*
X197897619Y-145772142D01*
X197850000Y-145819761D01*
X197754761Y-145867380D01*
X197659523Y-145867380D01*
X197564285Y-145819761D01*
X197516666Y-145772142D01*
X197469047Y-145676904D01*
X197421428Y-145486428D01*
X197421428Y-145248333D01*
X197469047Y-145057857D01*
X197516666Y-144962619D01*
X197564285Y-144915000D01*
X197659523Y-144867380D01*
M02*
