G04 #@! TF.GenerationSoftware,KiCad,Pcbnew,5.1.10-1.fc33*
G04 #@! TF.CreationDate,2021-05-23T00:59:55+02:00*
G04 #@! TF.ProjectId,Omega_DC-DC_adaptor_1.5,4f6d6567-615f-4444-932d-44435f616461,rev?*
G04 #@! TF.SameCoordinates,Original*
G04 #@! TF.FileFunction,Soldermask,Top*
G04 #@! TF.FilePolarity,Negative*
%FSLAX46Y46*%
G04 Gerber Fmt 4.6, Leading zero omitted, Abs format (unit mm)*
G04 Created by KiCad (PCBNEW 5.1.10-1.fc33) date 2021-05-23 00:59:55*
%MOMM*%
%LPD*%
G01*
G04 APERTURE LIST*
%ADD10O,2.350000X2.100000*%
%ADD11O,2.400000X2.100000*%
%ADD12O,2.000000X2.000000*%
%ADD13C,2.000000*%
%ADD14O,2.600000X2.600000*%
%ADD15O,2.100000X2.100000*%
%ADD16C,2.400000*%
%ADD17O,2.200000X2.200000*%
%ADD18C,3.448000*%
%ADD19C,4.400000*%
%ADD20C,4.900000*%
G04 APERTURE END LIST*
D10*
X195326000Y-157560000D03*
X195326000Y-160060000D03*
G36*
G01*
X196192177Y-163610000D02*
X194459823Y-163610000D01*
G75*
G02*
X194151000Y-163301177I0J308823D01*
G01*
X194151000Y-161818823D01*
G75*
G02*
X194459823Y-161510000I308823J0D01*
G01*
X196192177Y-161510000D01*
G75*
G02*
X196501000Y-161818823I0J-308823D01*
G01*
X196501000Y-163301177D01*
G75*
G02*
X196192177Y-163610000I-308823J0D01*
G01*
G37*
D11*
X204851000Y-159933000D03*
G36*
G01*
X205742177Y-163483000D02*
X203959823Y-163483000D01*
G75*
G02*
X203651000Y-163174177I0J308823D01*
G01*
X203651000Y-161691823D01*
G75*
G02*
X203959823Y-161383000I308823J0D01*
G01*
X205742177Y-161383000D01*
G75*
G02*
X206051000Y-161691823I0J-308823D01*
G01*
X206051000Y-163174177D01*
G75*
G02*
X205742177Y-163483000I-308823J0D01*
G01*
G37*
X215011000Y-159806000D03*
G36*
G01*
X215902177Y-163356000D02*
X214119823Y-163356000D01*
G75*
G02*
X213811000Y-163047177I0J308823D01*
G01*
X213811000Y-161564823D01*
G75*
G02*
X214119823Y-161256000I308823J0D01*
G01*
X215902177Y-161256000D01*
G75*
G02*
X216211000Y-161564823I0J-308823D01*
G01*
X216211000Y-163047177D01*
G75*
G02*
X215902177Y-163356000I-308823J0D01*
G01*
G37*
D12*
X194183000Y-145415000D03*
D13*
X194183000Y-137795000D03*
D14*
X194945000Y-151130000D03*
G36*
G01*
X206405000Y-150030000D02*
X206405000Y-152230000D01*
G75*
G02*
X206205000Y-152430000I-200000J0D01*
G01*
X204005000Y-152430000D01*
G75*
G02*
X203805000Y-152230000I0J200000D01*
G01*
X203805000Y-150030000D01*
G75*
G02*
X204005000Y-149830000I200000J0D01*
G01*
X206205000Y-149830000D01*
G75*
G02*
X206405000Y-150030000I0J-200000D01*
G01*
G37*
D15*
X217170000Y-132080000D03*
X217170000Y-129540000D03*
X217170000Y-127000000D03*
X217170000Y-124460000D03*
G36*
G01*
X216120000Y-122770000D02*
X216120000Y-121070000D01*
G75*
G02*
X216320000Y-120870000I200000J0D01*
G01*
X218020000Y-120870000D01*
G75*
G02*
X218220000Y-121070000I0J-200000D01*
G01*
X218220000Y-122770000D01*
G75*
G02*
X218020000Y-122970000I-200000J0D01*
G01*
X216320000Y-122970000D01*
G75*
G02*
X216120000Y-122770000I0J200000D01*
G01*
G37*
D16*
X212170000Y-139700000D03*
X217170000Y-139700000D03*
X217170000Y-136525000D03*
X212170000Y-136525000D03*
D17*
X197485000Y-139446000D03*
G36*
G01*
X206205000Y-138546000D02*
X206205000Y-140346000D01*
G75*
G02*
X206005000Y-140546000I-200000J0D01*
G01*
X204205000Y-140546000D01*
G75*
G02*
X204005000Y-140346000I0J200000D01*
G01*
X204005000Y-138546000D01*
G75*
G02*
X204205000Y-138346000I200000J0D01*
G01*
X206005000Y-138346000D01*
G75*
G02*
X206205000Y-138546000I0J-200000D01*
G01*
G37*
D18*
X196469000Y-124460000D03*
X196469000Y-129159000D03*
X196469000Y-133858000D03*
D15*
X208280000Y-154432000D03*
X208280000Y-151892000D03*
X208280000Y-149352000D03*
G36*
G01*
X207230000Y-147662000D02*
X207230000Y-145962000D01*
G75*
G02*
X207430000Y-145762000I200000J0D01*
G01*
X209130000Y-145762000D01*
G75*
G02*
X209330000Y-145962000I0J-200000D01*
G01*
X209330000Y-147662000D01*
G75*
G02*
X209130000Y-147862000I-200000J0D01*
G01*
X207430000Y-147862000D01*
G75*
G02*
X207230000Y-147662000I0J200000D01*
G01*
G37*
D16*
X199851000Y-147320000D03*
X204851000Y-147320000D03*
X200533000Y-158703000D03*
X200533000Y-163703000D03*
X210439000Y-158703000D03*
X210439000Y-163703000D03*
D19*
X205105000Y-127952500D03*
D20*
X205105000Y-134152640D03*
D19*
X209905600Y-130952240D03*
G36*
G01*
X198335000Y-143925000D02*
X196635000Y-143925000D01*
G75*
G02*
X196435000Y-143725000I0J200000D01*
G01*
X196435000Y-142025000D01*
G75*
G02*
X196635000Y-141825000I200000J0D01*
G01*
X198335000Y-141825000D01*
G75*
G02*
X198535000Y-142025000I0J-200000D01*
G01*
X198535000Y-143725000D01*
G75*
G02*
X198335000Y-143925000I-200000J0D01*
G01*
G37*
D15*
X200025000Y-142875000D03*
X202565000Y-142875000D03*
X205105000Y-142875000D03*
X207645000Y-142875000D03*
X210185000Y-142875000D03*
X212725000Y-142875000D03*
X215265000Y-142875000D03*
M02*
