G04 #@! TF.GenerationSoftware,KiCad,Pcbnew,5.1.10-1.fc33*
G04 #@! TF.CreationDate,2021-05-23T00:59:55+02:00*
G04 #@! TF.ProjectId,Omega_DC-DC_adaptor_1.5,4f6d6567-615f-4444-932d-44435f616461,rev?*
G04 #@! TF.SameCoordinates,Original*
G04 #@! TF.FileFunction,Copper,L1,Top*
G04 #@! TF.FilePolarity,Positive*
%FSLAX46Y46*%
G04 Gerber Fmt 4.6, Leading zero omitted, Abs format (unit mm)*
G04 Created by KiCad (PCBNEW 5.1.10-1.fc33) date 2021-05-23 00:59:55*
%MOMM*%
%LPD*%
G01*
G04 APERTURE LIST*
G04 #@! TA.AperFunction,ComponentPad*
%ADD10O,1.950000X1.700000*%
G04 #@! TD*
G04 #@! TA.AperFunction,ComponentPad*
%ADD11O,2.000000X1.700000*%
G04 #@! TD*
G04 #@! TA.AperFunction,ComponentPad*
%ADD12O,1.600000X1.600000*%
G04 #@! TD*
G04 #@! TA.AperFunction,ComponentPad*
%ADD13C,1.600000*%
G04 #@! TD*
G04 #@! TA.AperFunction,ComponentPad*
%ADD14O,2.200000X2.200000*%
G04 #@! TD*
G04 #@! TA.AperFunction,ComponentPad*
%ADD15R,2.200000X2.200000*%
G04 #@! TD*
G04 #@! TA.AperFunction,ComponentPad*
%ADD16O,1.700000X1.700000*%
G04 #@! TD*
G04 #@! TA.AperFunction,ComponentPad*
%ADD17R,1.700000X1.700000*%
G04 #@! TD*
G04 #@! TA.AperFunction,ComponentPad*
%ADD18C,2.000000*%
G04 #@! TD*
G04 #@! TA.AperFunction,ComponentPad*
%ADD19O,1.800000X1.800000*%
G04 #@! TD*
G04 #@! TA.AperFunction,ComponentPad*
%ADD20R,1.800000X1.800000*%
G04 #@! TD*
G04 #@! TA.AperFunction,ComponentPad*
%ADD21C,3.048000*%
G04 #@! TD*
G04 #@! TA.AperFunction,ComponentPad*
%ADD22C,4.000000*%
G04 #@! TD*
G04 #@! TA.AperFunction,ComponentPad*
%ADD23C,4.500000*%
G04 #@! TD*
G04 #@! TA.AperFunction,ViaPad*
%ADD24C,0.600000*%
G04 #@! TD*
G04 #@! TA.AperFunction,Conductor*
%ADD25C,0.736600*%
G04 #@! TD*
G04 #@! TA.AperFunction,Conductor*
%ADD26C,0.254000*%
G04 #@! TD*
G04 #@! TA.AperFunction,Conductor*
%ADD27C,0.100000*%
G04 #@! TD*
G04 APERTURE END LIST*
D10*
X195326000Y-157560000D03*
X195326000Y-160060000D03*
G04 #@! TA.AperFunction,ComponentPad*
G36*
G01*
X196051000Y-163410000D02*
X194601000Y-163410000D01*
G75*
G02*
X194351000Y-163160000I0J250000D01*
G01*
X194351000Y-161960000D01*
G75*
G02*
X194601000Y-161710000I250000J0D01*
G01*
X196051000Y-161710000D01*
G75*
G02*
X196301000Y-161960000I0J-250000D01*
G01*
X196301000Y-163160000D01*
G75*
G02*
X196051000Y-163410000I-250000J0D01*
G01*
G37*
G04 #@! TD.AperFunction*
D11*
X204851000Y-159933000D03*
G04 #@! TA.AperFunction,ComponentPad*
G36*
G01*
X205601000Y-163283000D02*
X204101000Y-163283000D01*
G75*
G02*
X203851000Y-163033000I0J250000D01*
G01*
X203851000Y-161833000D01*
G75*
G02*
X204101000Y-161583000I250000J0D01*
G01*
X205601000Y-161583000D01*
G75*
G02*
X205851000Y-161833000I0J-250000D01*
G01*
X205851000Y-163033000D01*
G75*
G02*
X205601000Y-163283000I-250000J0D01*
G01*
G37*
G04 #@! TD.AperFunction*
X215011000Y-159806000D03*
G04 #@! TA.AperFunction,ComponentPad*
G36*
G01*
X215761000Y-163156000D02*
X214261000Y-163156000D01*
G75*
G02*
X214011000Y-162906000I0J250000D01*
G01*
X214011000Y-161706000D01*
G75*
G02*
X214261000Y-161456000I250000J0D01*
G01*
X215761000Y-161456000D01*
G75*
G02*
X216011000Y-161706000I0J-250000D01*
G01*
X216011000Y-162906000D01*
G75*
G02*
X215761000Y-163156000I-250000J0D01*
G01*
G37*
G04 #@! TD.AperFunction*
D12*
X194183000Y-145415000D03*
D13*
X194183000Y-137795000D03*
D14*
X194945000Y-151130000D03*
D15*
X205105000Y-151130000D03*
D16*
X217170000Y-132080000D03*
X217170000Y-129540000D03*
X217170000Y-127000000D03*
X217170000Y-124460000D03*
D17*
X217170000Y-121920000D03*
D18*
X212170000Y-139700000D03*
X217170000Y-139700000D03*
X217170000Y-136525000D03*
X212170000Y-136525000D03*
D19*
X197485000Y-139446000D03*
D20*
X205105000Y-139446000D03*
D21*
X196469000Y-124460000D03*
X196469000Y-129159000D03*
X196469000Y-133858000D03*
D16*
X208280000Y-154432000D03*
X208280000Y-151892000D03*
X208280000Y-149352000D03*
D17*
X208280000Y-146812000D03*
D18*
X199851000Y-147320000D03*
X204851000Y-147320000D03*
X200533000Y-158703000D03*
X200533000Y-163703000D03*
X210439000Y-158703000D03*
X210439000Y-163703000D03*
D22*
X205105000Y-127952500D03*
D23*
X205105000Y-134152640D03*
D22*
X209905600Y-130952240D03*
D17*
X197485000Y-142875000D03*
D16*
X200025000Y-142875000D03*
X202565000Y-142875000D03*
X205105000Y-142875000D03*
X207645000Y-142875000D03*
X210185000Y-142875000D03*
X212725000Y-142875000D03*
X215265000Y-142875000D03*
D24*
X210185000Y-161290000D03*
X210820000Y-124460000D03*
X200660000Y-161290000D03*
X202565000Y-151892000D03*
X200025000Y-127635000D03*
X212725000Y-149225000D03*
X202565000Y-154305000D03*
D25*
X205105000Y-142875000D02*
X207645000Y-142875000D01*
X207645000Y-142875000D02*
X210185000Y-142875000D01*
X205105000Y-142875000D02*
X205105000Y-139446000D01*
X205105000Y-147066000D02*
X204851000Y-147320000D01*
X205105000Y-145415000D02*
X205105000Y-147066000D01*
X205105000Y-142875000D02*
X205105000Y-145415000D01*
X205105000Y-145415000D02*
X205105000Y-146050000D01*
X204851000Y-162433000D02*
X207772000Y-162433000D01*
X207772000Y-162433000D02*
X208915000Y-161290000D01*
X212471000Y-162306000D02*
X215011000Y-162306000D01*
X211455000Y-161290000D02*
X212471000Y-162306000D01*
X194945000Y-145415000D02*
X197485000Y-142875000D01*
X194183000Y-145415000D02*
X194945000Y-145415000D01*
X197485000Y-142875000D02*
X200025000Y-142875000D01*
X200025000Y-142875000D02*
X202565000Y-142875000D01*
X197485000Y-139446000D02*
X197485000Y-142875000D01*
X208915000Y-161290000D02*
X210185000Y-161290000D01*
X210185000Y-161290000D02*
X211455000Y-161290000D01*
X217170000Y-124460000D02*
X210820000Y-124460000D01*
X201295000Y-161290000D02*
X202438000Y-162433000D01*
X199390000Y-161290000D02*
X200660000Y-161290000D01*
X202438000Y-162433000D02*
X204851000Y-162433000D01*
X198160000Y-160060000D02*
X199390000Y-161290000D01*
X195326000Y-160060000D02*
X198160000Y-160060000D01*
X200660000Y-161290000D02*
X201295000Y-161290000D01*
X202565000Y-150495000D02*
X202565000Y-142875000D01*
X202565000Y-151892000D02*
X202565000Y-150495000D01*
X199851000Y-147320000D02*
X199851000Y-154766000D01*
X200533000Y-155448000D02*
X200533000Y-158703000D01*
X199851000Y-154766000D02*
X200533000Y-155448000D01*
X200025000Y-129072640D02*
X205105000Y-134152640D01*
X200025000Y-127635000D02*
X200025000Y-129072640D01*
X212725000Y-149225000D02*
X212725000Y-142875000D01*
X214947500Y-138747500D02*
X217170000Y-136525000D01*
X214947500Y-140652500D02*
X214630000Y-140970000D01*
X214947500Y-138747500D02*
X214947500Y-140652500D01*
X212725000Y-142875000D02*
X214630000Y-140970000D01*
X217170000Y-139700000D02*
X217170000Y-141605000D01*
X215900000Y-142875000D02*
X215265000Y-142875000D01*
X217170000Y-141605000D02*
X215900000Y-142875000D01*
X215265000Y-151257000D02*
X215265000Y-142875000D01*
X210520001Y-156001999D02*
X215265000Y-151257000D01*
X204261999Y-156001999D02*
X210520001Y-156001999D01*
X202565000Y-154305000D02*
X204261999Y-156001999D01*
X214630000Y-134065000D02*
X212170000Y-136525000D01*
X214630000Y-128270000D02*
X214630000Y-134065000D01*
X215900000Y-127000000D02*
X214630000Y-128270000D01*
X217170000Y-127000000D02*
X215900000Y-127000000D01*
D26*
X215922957Y-120672957D02*
X215853127Y-120758046D01*
X215801239Y-120855122D01*
X215769286Y-120960456D01*
X215758497Y-121070000D01*
X215758497Y-122770000D01*
X215769286Y-122879544D01*
X215801239Y-122984878D01*
X215853127Y-123081954D01*
X215922957Y-123167043D01*
X216008046Y-123236873D01*
X216105122Y-123288761D01*
X216210456Y-123320714D01*
X216225044Y-123322151D01*
X216072412Y-123459731D01*
X215898359Y-123693080D01*
X215773175Y-123955901D01*
X215728524Y-124103110D01*
X215849845Y-124333000D01*
X217043000Y-124333000D01*
X217043000Y-124313000D01*
X217297000Y-124313000D01*
X217297000Y-124333000D01*
X217317000Y-124333000D01*
X217317000Y-124587000D01*
X217297000Y-124587000D01*
X217297000Y-124607000D01*
X217043000Y-124607000D01*
X217043000Y-124587000D01*
X215849845Y-124587000D01*
X215728524Y-124816890D01*
X215773175Y-124964099D01*
X215898359Y-125226920D01*
X216072412Y-125460269D01*
X216288645Y-125655178D01*
X216478046Y-125767999D01*
X216271942Y-125905713D01*
X216104755Y-126072900D01*
X215945529Y-126072900D01*
X215899999Y-126068416D01*
X215854469Y-126072900D01*
X215854463Y-126072900D01*
X215736846Y-126084484D01*
X215718256Y-126086315D01*
X215666742Y-126101942D01*
X215543498Y-126139328D01*
X215382439Y-126225415D01*
X215382437Y-126225416D01*
X215382438Y-126225416D01*
X215276640Y-126312242D01*
X215276638Y-126312244D01*
X215241270Y-126341270D01*
X215212244Y-126376638D01*
X214006643Y-127582240D01*
X213971270Y-127611270D01*
X213855415Y-127752440D01*
X213769328Y-127913499D01*
X213716315Y-128088258D01*
X213702900Y-128224464D01*
X213702900Y-128224470D01*
X213698416Y-128270000D01*
X213702900Y-128315530D01*
X213702901Y-133680982D01*
X212402062Y-134981821D01*
X212323528Y-134966200D01*
X212016472Y-134966200D01*
X211715315Y-135026104D01*
X211431631Y-135143610D01*
X211176323Y-135314201D01*
X210959201Y-135531323D01*
X210788610Y-135786631D01*
X210671104Y-136070315D01*
X210611200Y-136371472D01*
X210611200Y-136678528D01*
X210671104Y-136979685D01*
X210788610Y-137263369D01*
X210959201Y-137518677D01*
X211176323Y-137735799D01*
X211431631Y-137906390D01*
X211715315Y-138023896D01*
X212016472Y-138083800D01*
X212323528Y-138083800D01*
X212624685Y-138023896D01*
X212908369Y-137906390D01*
X213163677Y-137735799D01*
X213380799Y-137518677D01*
X213551390Y-137263369D01*
X213668896Y-136979685D01*
X213728800Y-136678528D01*
X213728800Y-136371472D01*
X213713179Y-136292938D01*
X215253357Y-134752760D01*
X215288730Y-134723730D01*
X215404585Y-134582561D01*
X215490672Y-134421502D01*
X215543685Y-134246743D01*
X215557100Y-134110537D01*
X215557100Y-134110528D01*
X215561584Y-134065001D01*
X215557100Y-134019474D01*
X215557100Y-128654017D01*
X216194386Y-128016731D01*
X216271942Y-128094287D01*
X216478046Y-128232001D01*
X216288645Y-128344822D01*
X216072412Y-128539731D01*
X215898359Y-128773080D01*
X215773175Y-129035901D01*
X215728524Y-129183110D01*
X215849845Y-129413000D01*
X217043000Y-129413000D01*
X217043000Y-129393000D01*
X217297000Y-129393000D01*
X217297000Y-129413000D01*
X217317000Y-129413000D01*
X217317000Y-129667000D01*
X217297000Y-129667000D01*
X217297000Y-129687000D01*
X217043000Y-129687000D01*
X217043000Y-129667000D01*
X215849845Y-129667000D01*
X215728524Y-129896890D01*
X215773175Y-130044099D01*
X215898359Y-130306920D01*
X216072412Y-130540269D01*
X216288645Y-130735178D01*
X216478046Y-130847999D01*
X216271942Y-130985713D01*
X216075713Y-131181942D01*
X215921537Y-131412683D01*
X215815339Y-131669068D01*
X215761200Y-131941245D01*
X215761200Y-132218755D01*
X215815339Y-132490932D01*
X215921537Y-132747317D01*
X216075713Y-132978058D01*
X216271942Y-133174287D01*
X216502683Y-133328463D01*
X216759068Y-133434661D01*
X217031245Y-133488800D01*
X217308755Y-133488800D01*
X217580932Y-133434661D01*
X217837317Y-133328463D01*
X218068058Y-133174287D01*
X218264287Y-132978058D01*
X218418463Y-132747317D01*
X218441200Y-132692424D01*
X218441200Y-135621720D01*
X218380799Y-135531323D01*
X218163677Y-135314201D01*
X217908369Y-135143610D01*
X217624685Y-135026104D01*
X217323528Y-134966200D01*
X217016472Y-134966200D01*
X216715315Y-135026104D01*
X216431631Y-135143610D01*
X216176323Y-135314201D01*
X215959201Y-135531323D01*
X215788610Y-135786631D01*
X215671104Y-136070315D01*
X215611200Y-136371472D01*
X215611200Y-136678528D01*
X215626821Y-136757062D01*
X214324143Y-138059740D01*
X214288770Y-138088770D01*
X214172915Y-138229940D01*
X214086828Y-138390999D01*
X214057039Y-138489201D01*
X214039809Y-138546000D01*
X214033815Y-138565758D01*
X214020400Y-138701964D01*
X214020400Y-138701970D01*
X214015916Y-138747500D01*
X214020400Y-138793030D01*
X214020401Y-140268482D01*
X214006646Y-140282237D01*
X214006640Y-140282242D01*
X212822683Y-141466200D01*
X212586245Y-141466200D01*
X212314068Y-141520339D01*
X212057683Y-141626537D01*
X211826942Y-141780713D01*
X211630713Y-141976942D01*
X211476537Y-142207683D01*
X211455000Y-142259678D01*
X211433463Y-142207683D01*
X211279287Y-141976942D01*
X211083058Y-141780713D01*
X210852317Y-141626537D01*
X210595932Y-141520339D01*
X210323755Y-141466200D01*
X210046245Y-141466200D01*
X209774068Y-141520339D01*
X209517683Y-141626537D01*
X209286942Y-141780713D01*
X209119755Y-141947900D01*
X208710245Y-141947900D01*
X208543058Y-141780713D01*
X208312317Y-141626537D01*
X208055932Y-141520339D01*
X207783755Y-141466200D01*
X207506245Y-141466200D01*
X207234068Y-141520339D01*
X206977683Y-141626537D01*
X206746942Y-141780713D01*
X206579755Y-141947900D01*
X206170245Y-141947900D01*
X206032100Y-141809755D01*
X206032100Y-140904834D01*
X206114544Y-140896714D01*
X206219878Y-140864761D01*
X206316954Y-140812873D01*
X206402043Y-140743043D01*
X206471873Y-140657954D01*
X206523761Y-140560878D01*
X206555714Y-140455544D01*
X206566503Y-140346000D01*
X206566503Y-139546472D01*
X210611200Y-139546472D01*
X210611200Y-139853528D01*
X210671104Y-140154685D01*
X210788610Y-140438369D01*
X210959201Y-140693677D01*
X211176323Y-140910799D01*
X211431631Y-141081390D01*
X211715315Y-141198896D01*
X212016472Y-141258800D01*
X212323528Y-141258800D01*
X212624685Y-141198896D01*
X212908369Y-141081390D01*
X213163677Y-140910799D01*
X213380799Y-140693677D01*
X213551390Y-140438369D01*
X213668896Y-140154685D01*
X213728800Y-139853528D01*
X213728800Y-139546472D01*
X213668896Y-139245315D01*
X213551390Y-138961631D01*
X213380799Y-138706323D01*
X213163677Y-138489201D01*
X212908369Y-138318610D01*
X212624685Y-138201104D01*
X212323528Y-138141200D01*
X212016472Y-138141200D01*
X211715315Y-138201104D01*
X211431631Y-138318610D01*
X211176323Y-138489201D01*
X210959201Y-138706323D01*
X210788610Y-138961631D01*
X210671104Y-139245315D01*
X210611200Y-139546472D01*
X206566503Y-139546472D01*
X206566503Y-138546000D01*
X206555714Y-138436456D01*
X206523761Y-138331122D01*
X206471873Y-138234046D01*
X206402043Y-138148957D01*
X206316954Y-138079127D01*
X206219878Y-138027239D01*
X206114544Y-137995286D01*
X206005000Y-137984497D01*
X204205000Y-137984497D01*
X204095456Y-137995286D01*
X203990122Y-138027239D01*
X203893046Y-138079127D01*
X203807957Y-138148957D01*
X203738127Y-138234046D01*
X203686239Y-138331122D01*
X203654286Y-138436456D01*
X203643497Y-138546000D01*
X203643497Y-140346000D01*
X203654286Y-140455544D01*
X203686239Y-140560878D01*
X203738127Y-140657954D01*
X203807957Y-140743043D01*
X203893046Y-140812873D01*
X203990122Y-140864761D01*
X204095456Y-140896714D01*
X204177901Y-140904834D01*
X204177900Y-141809755D01*
X204010713Y-141976942D01*
X203872999Y-142183046D01*
X203760178Y-141993645D01*
X203565269Y-141777412D01*
X203331920Y-141603359D01*
X203069099Y-141478175D01*
X202921890Y-141433524D01*
X202692000Y-141554845D01*
X202692000Y-142748000D01*
X202712000Y-142748000D01*
X202712000Y-143002000D01*
X202692000Y-143002000D01*
X202692000Y-144195155D01*
X202921890Y-144316476D01*
X203069099Y-144271825D01*
X203331920Y-144146641D01*
X203565269Y-143972588D01*
X203760178Y-143756355D01*
X203872999Y-143566954D01*
X204010713Y-143773058D01*
X204177900Y-143940245D01*
X204177901Y-145369454D01*
X204177900Y-145369464D01*
X204177900Y-145911575D01*
X204112631Y-145938610D01*
X203857323Y-146109201D01*
X203640201Y-146326323D01*
X203469610Y-146581631D01*
X203352104Y-146865315D01*
X203292200Y-147166472D01*
X203292200Y-147473528D01*
X203352104Y-147774685D01*
X203469610Y-148058369D01*
X203640201Y-148313677D01*
X203857323Y-148530799D01*
X204112631Y-148701390D01*
X204396315Y-148818896D01*
X204697472Y-148878800D01*
X205004528Y-148878800D01*
X205305685Y-148818896D01*
X205589369Y-148701390D01*
X205844677Y-148530799D01*
X206061799Y-148313677D01*
X206232390Y-148058369D01*
X206349896Y-147774685D01*
X206409800Y-147473528D01*
X206409800Y-147166472D01*
X206349896Y-146865315D01*
X206232390Y-146581631D01*
X206061799Y-146326323D01*
X206032100Y-146296624D01*
X206032100Y-143940245D01*
X206170245Y-143802100D01*
X206579755Y-143802100D01*
X206746942Y-143969287D01*
X206977683Y-144123463D01*
X207234068Y-144229661D01*
X207506245Y-144283800D01*
X207783755Y-144283800D01*
X208055932Y-144229661D01*
X208312317Y-144123463D01*
X208543058Y-143969287D01*
X208710245Y-143802100D01*
X209119755Y-143802100D01*
X209286942Y-143969287D01*
X209517683Y-144123463D01*
X209774068Y-144229661D01*
X210046245Y-144283800D01*
X210323755Y-144283800D01*
X210595932Y-144229661D01*
X210852317Y-144123463D01*
X211083058Y-143969287D01*
X211279287Y-143773058D01*
X211433463Y-143542317D01*
X211455000Y-143490322D01*
X211476537Y-143542317D01*
X211630713Y-143773058D01*
X211797901Y-143940246D01*
X211797900Y-149270536D01*
X211811315Y-149406742D01*
X211864328Y-149581501D01*
X211950415Y-149742560D01*
X212066270Y-149883730D01*
X212207439Y-149999585D01*
X212368498Y-150085672D01*
X212543257Y-150138685D01*
X212725000Y-150156585D01*
X212906742Y-150138685D01*
X213081501Y-150085672D01*
X213242560Y-149999585D01*
X213383730Y-149883730D01*
X213499585Y-149742561D01*
X213585672Y-149581502D01*
X213638685Y-149406743D01*
X213652100Y-149270537D01*
X213652100Y-143940245D01*
X213819287Y-143773058D01*
X213973463Y-143542317D01*
X213995000Y-143490322D01*
X214016537Y-143542317D01*
X214170713Y-143773058D01*
X214337901Y-143940246D01*
X214337900Y-150872982D01*
X210135984Y-155074899D01*
X209538577Y-155074899D01*
X209634661Y-154842932D01*
X209688800Y-154570755D01*
X209688800Y-154293245D01*
X209634661Y-154021068D01*
X209528463Y-153764683D01*
X209374287Y-153533942D01*
X209178058Y-153337713D01*
X208971954Y-153199999D01*
X209161355Y-153087178D01*
X209377588Y-152892269D01*
X209551641Y-152658920D01*
X209676825Y-152396099D01*
X209721476Y-152248890D01*
X209600155Y-152019000D01*
X208407000Y-152019000D01*
X208407000Y-152039000D01*
X208153000Y-152039000D01*
X208153000Y-152019000D01*
X206959845Y-152019000D01*
X206838524Y-152248890D01*
X206883175Y-152396099D01*
X207008359Y-152658920D01*
X207182412Y-152892269D01*
X207398645Y-153087178D01*
X207588046Y-153199999D01*
X207381942Y-153337713D01*
X207185713Y-153533942D01*
X207031537Y-153764683D01*
X206925339Y-154021068D01*
X206871200Y-154293245D01*
X206871200Y-154570755D01*
X206925339Y-154842932D01*
X207021423Y-155074899D01*
X204646017Y-155074899D01*
X203188359Y-153617242D01*
X203082561Y-153530416D01*
X202921502Y-153444329D01*
X202746743Y-153391315D01*
X202565000Y-153373416D01*
X202383257Y-153391315D01*
X202208498Y-153444329D01*
X202047439Y-153530416D01*
X201906270Y-153646270D01*
X201790416Y-153787439D01*
X201704329Y-153948498D01*
X201651315Y-154123257D01*
X201633416Y-154305000D01*
X201651315Y-154486743D01*
X201704329Y-154661502D01*
X201790416Y-154822561D01*
X201877242Y-154928359D01*
X203574243Y-156625361D01*
X203603269Y-156660729D01*
X203638637Y-156689755D01*
X203638639Y-156689757D01*
X203713898Y-156751520D01*
X203744438Y-156776584D01*
X203905497Y-156862671D01*
X204027242Y-156899602D01*
X204080255Y-156915684D01*
X204098845Y-156917515D01*
X204216462Y-156929099D01*
X204216468Y-156929099D01*
X204261998Y-156933583D01*
X204307528Y-156929099D01*
X210474471Y-156929099D01*
X210520001Y-156933583D01*
X210565531Y-156929099D01*
X210565538Y-156929099D01*
X210701744Y-156915684D01*
X210876503Y-156862671D01*
X211037562Y-156776584D01*
X211178731Y-156660729D01*
X211207761Y-156625356D01*
X215888364Y-151944754D01*
X215923730Y-151915730D01*
X216039585Y-151774561D01*
X216125672Y-151613502D01*
X216178685Y-151438743D01*
X216192100Y-151302537D01*
X216192100Y-151302530D01*
X216196584Y-151257000D01*
X216192100Y-151211470D01*
X216192100Y-143940245D01*
X216359287Y-143773058D01*
X216471206Y-143605560D01*
X216558730Y-143533730D01*
X216587760Y-143498357D01*
X217793362Y-142292756D01*
X217828730Y-142263730D01*
X217944585Y-142122561D01*
X218030672Y-141961502D01*
X218067603Y-141839757D01*
X218083685Y-141786744D01*
X218095133Y-141670506D01*
X218097100Y-141650537D01*
X218097100Y-141650531D01*
X218101584Y-141605001D01*
X218097100Y-141559471D01*
X218097100Y-140955284D01*
X218163677Y-140910799D01*
X218380799Y-140693677D01*
X218441200Y-140603280D01*
X218441201Y-165101200D01*
X211136786Y-165101200D01*
X211177369Y-165084390D01*
X211432677Y-164913799D01*
X211649799Y-164696677D01*
X211820390Y-164441369D01*
X211937896Y-164157685D01*
X211997800Y-163856528D01*
X211997800Y-163549472D01*
X211937896Y-163248315D01*
X211899658Y-163156000D01*
X213372928Y-163156000D01*
X213385188Y-163280482D01*
X213421498Y-163400180D01*
X213480463Y-163510494D01*
X213559815Y-163607185D01*
X213656506Y-163686537D01*
X213766820Y-163745502D01*
X213886518Y-163781812D01*
X214011000Y-163794072D01*
X214725250Y-163791000D01*
X214884000Y-163632250D01*
X214884000Y-162433000D01*
X215138000Y-162433000D01*
X215138000Y-163632250D01*
X215296750Y-163791000D01*
X216011000Y-163794072D01*
X216135482Y-163781812D01*
X216255180Y-163745502D01*
X216365494Y-163686537D01*
X216462185Y-163607185D01*
X216541537Y-163510494D01*
X216600502Y-163400180D01*
X216636812Y-163280482D01*
X216649072Y-163156000D01*
X216646000Y-162591750D01*
X216487250Y-162433000D01*
X215138000Y-162433000D01*
X214884000Y-162433000D01*
X213534750Y-162433000D01*
X213376000Y-162591750D01*
X213372928Y-163156000D01*
X211899658Y-163156000D01*
X211820390Y-162964631D01*
X211649799Y-162709323D01*
X211432677Y-162492201D01*
X211177369Y-162321610D01*
X210893685Y-162204104D01*
X210592528Y-162144200D01*
X210285472Y-162144200D01*
X209984315Y-162204104D01*
X209700631Y-162321610D01*
X209445323Y-162492201D01*
X209228201Y-162709323D01*
X209057610Y-162964631D01*
X208940104Y-163248315D01*
X208880200Y-163549472D01*
X208880200Y-163856528D01*
X208940104Y-164157685D01*
X209057610Y-164441369D01*
X209228201Y-164696677D01*
X209445323Y-164913799D01*
X209700631Y-165084390D01*
X209741214Y-165101200D01*
X201230786Y-165101200D01*
X201271369Y-165084390D01*
X201526677Y-164913799D01*
X201743799Y-164696677D01*
X201914390Y-164441369D01*
X202031896Y-164157685D01*
X202091800Y-163856528D01*
X202091800Y-163549472D01*
X202038796Y-163283000D01*
X203212928Y-163283000D01*
X203225188Y-163407482D01*
X203261498Y-163527180D01*
X203320463Y-163637494D01*
X203399815Y-163734185D01*
X203496506Y-163813537D01*
X203606820Y-163872502D01*
X203726518Y-163908812D01*
X203851000Y-163921072D01*
X204565250Y-163918000D01*
X204724000Y-163759250D01*
X204724000Y-162560000D01*
X204978000Y-162560000D01*
X204978000Y-163759250D01*
X205136750Y-163918000D01*
X205851000Y-163921072D01*
X205975482Y-163908812D01*
X206095180Y-163872502D01*
X206205494Y-163813537D01*
X206302185Y-163734185D01*
X206381537Y-163637494D01*
X206440502Y-163527180D01*
X206476812Y-163407482D01*
X206489072Y-163283000D01*
X206486000Y-162718750D01*
X206327250Y-162560000D01*
X204978000Y-162560000D01*
X204724000Y-162560000D01*
X203374750Y-162560000D01*
X203216000Y-162718750D01*
X203212928Y-163283000D01*
X202038796Y-163283000D01*
X202031896Y-163248315D01*
X201914390Y-162964631D01*
X201743799Y-162709323D01*
X201526677Y-162492201D01*
X201271369Y-162321610D01*
X200987685Y-162204104D01*
X200686528Y-162144200D01*
X200379472Y-162144200D01*
X200078315Y-162204104D01*
X199794631Y-162321610D01*
X199539323Y-162492201D01*
X199322201Y-162709323D01*
X199151610Y-162964631D01*
X199034104Y-163248315D01*
X198974200Y-163549472D01*
X198974200Y-163856528D01*
X199034104Y-164157685D01*
X199151610Y-164441369D01*
X199322201Y-164696677D01*
X199539323Y-164913799D01*
X199794631Y-165084390D01*
X199835214Y-165101200D01*
X193038800Y-165101200D01*
X193038800Y-160416890D01*
X193759524Y-160416890D01*
X193851648Y-160679858D01*
X193998504Y-160931193D01*
X194191571Y-161149049D01*
X194279752Y-161215987D01*
X194150153Y-161285260D01*
X194027181Y-161386181D01*
X193926260Y-161509153D01*
X193851269Y-161649451D01*
X193805090Y-161801684D01*
X193789497Y-161960000D01*
X193789497Y-163160000D01*
X193805090Y-163318316D01*
X193851269Y-163470549D01*
X193926260Y-163610847D01*
X194027181Y-163733819D01*
X194150153Y-163834740D01*
X194290451Y-163909731D01*
X194442684Y-163955910D01*
X194601000Y-163971503D01*
X196051000Y-163971503D01*
X196209316Y-163955910D01*
X196361549Y-163909731D01*
X196501847Y-163834740D01*
X196624819Y-163733819D01*
X196725740Y-163610847D01*
X196800731Y-163470549D01*
X196846910Y-163318316D01*
X196862503Y-163160000D01*
X196862503Y-161960000D01*
X196846910Y-161801684D01*
X196800731Y-161649451D01*
X196765213Y-161583000D01*
X203212928Y-161583000D01*
X203216000Y-162147250D01*
X203374750Y-162306000D01*
X204724000Y-162306000D01*
X204724000Y-162286000D01*
X204978000Y-162286000D01*
X204978000Y-162306000D01*
X206327250Y-162306000D01*
X206486000Y-162147250D01*
X206489072Y-161583000D01*
X206476812Y-161458518D01*
X206476049Y-161456000D01*
X213372928Y-161456000D01*
X213376000Y-162020250D01*
X213534750Y-162179000D01*
X214884000Y-162179000D01*
X214884000Y-162159000D01*
X215138000Y-162159000D01*
X215138000Y-162179000D01*
X216487250Y-162179000D01*
X216646000Y-162020250D01*
X216649072Y-161456000D01*
X216636812Y-161331518D01*
X216600502Y-161211820D01*
X216541537Y-161101506D01*
X216462185Y-161004815D01*
X216365494Y-160925463D01*
X216255180Y-160866498D01*
X216135482Y-160830188D01*
X216133916Y-160830034D01*
X216161992Y-160806992D01*
X216338042Y-160592474D01*
X216468859Y-160347733D01*
X216549415Y-160082173D01*
X216576616Y-159806000D01*
X216549415Y-159529827D01*
X216468859Y-159264267D01*
X216338042Y-159019526D01*
X216161992Y-158805008D01*
X215947474Y-158628958D01*
X215702733Y-158498141D01*
X215437173Y-158417585D01*
X215230203Y-158397200D01*
X214791797Y-158397200D01*
X214584827Y-158417585D01*
X214319267Y-158498141D01*
X214074526Y-158628958D01*
X213860008Y-158805008D01*
X213683958Y-159019526D01*
X213553141Y-159264267D01*
X213472585Y-159529827D01*
X213445384Y-159806000D01*
X213472585Y-160082173D01*
X213553141Y-160347733D01*
X213683958Y-160592474D01*
X213860008Y-160806992D01*
X213888084Y-160830034D01*
X213886518Y-160830188D01*
X213766820Y-160866498D01*
X213656506Y-160925463D01*
X213559815Y-161004815D01*
X213480463Y-161101506D01*
X213421498Y-161211820D01*
X213385188Y-161331518D01*
X213372928Y-161456000D01*
X206476049Y-161456000D01*
X206440502Y-161338820D01*
X206381537Y-161228506D01*
X206302185Y-161131815D01*
X206205494Y-161052463D01*
X206095180Y-160993498D01*
X205975482Y-160957188D01*
X205973916Y-160957034D01*
X206001992Y-160933992D01*
X206178042Y-160719474D01*
X206308859Y-160474733D01*
X206389415Y-160209173D01*
X206416616Y-159933000D01*
X206389415Y-159656827D01*
X206308859Y-159391267D01*
X206178042Y-159146526D01*
X206001992Y-158932008D01*
X205787474Y-158755958D01*
X205542733Y-158625141D01*
X205293284Y-158549472D01*
X208880200Y-158549472D01*
X208880200Y-158856528D01*
X208940104Y-159157685D01*
X209057610Y-159441369D01*
X209228201Y-159696677D01*
X209445323Y-159913799D01*
X209700631Y-160084390D01*
X209984315Y-160201896D01*
X210285472Y-160261800D01*
X210592528Y-160261800D01*
X210893685Y-160201896D01*
X211177369Y-160084390D01*
X211432677Y-159913799D01*
X211649799Y-159696677D01*
X211820390Y-159441369D01*
X211937896Y-159157685D01*
X211997800Y-158856528D01*
X211997800Y-158549472D01*
X211937896Y-158248315D01*
X211820390Y-157964631D01*
X211649799Y-157709323D01*
X211432677Y-157492201D01*
X211177369Y-157321610D01*
X210893685Y-157204104D01*
X210592528Y-157144200D01*
X210285472Y-157144200D01*
X209984315Y-157204104D01*
X209700631Y-157321610D01*
X209445323Y-157492201D01*
X209228201Y-157709323D01*
X209057610Y-157964631D01*
X208940104Y-158248315D01*
X208880200Y-158549472D01*
X205293284Y-158549472D01*
X205277173Y-158544585D01*
X205070203Y-158524200D01*
X204631797Y-158524200D01*
X204424827Y-158544585D01*
X204159267Y-158625141D01*
X203914526Y-158755958D01*
X203700008Y-158932008D01*
X203523958Y-159146526D01*
X203393141Y-159391267D01*
X203312585Y-159656827D01*
X203285384Y-159933000D01*
X203312585Y-160209173D01*
X203393141Y-160474733D01*
X203523958Y-160719474D01*
X203700008Y-160933992D01*
X203728084Y-160957034D01*
X203726518Y-160957188D01*
X203606820Y-160993498D01*
X203496506Y-161052463D01*
X203399815Y-161131815D01*
X203320463Y-161228506D01*
X203261498Y-161338820D01*
X203225188Y-161458518D01*
X203212928Y-161583000D01*
X196765213Y-161583000D01*
X196725740Y-161509153D01*
X196624819Y-161386181D01*
X196501847Y-161285260D01*
X196372248Y-161215987D01*
X196460429Y-161149049D01*
X196653496Y-160931193D01*
X196800352Y-160679858D01*
X196892476Y-160416890D01*
X196771155Y-160187000D01*
X195453000Y-160187000D01*
X195453000Y-160207000D01*
X195199000Y-160207000D01*
X195199000Y-160187000D01*
X193880845Y-160187000D01*
X193759524Y-160416890D01*
X193038800Y-160416890D01*
X193038800Y-159703110D01*
X193759524Y-159703110D01*
X193880845Y-159933000D01*
X195199000Y-159933000D01*
X195199000Y-159913000D01*
X195453000Y-159913000D01*
X195453000Y-159933000D01*
X196771155Y-159933000D01*
X196892476Y-159703110D01*
X196800352Y-159440142D01*
X196653496Y-159188807D01*
X196460429Y-158970951D01*
X196228570Y-158794947D01*
X196176528Y-158769618D01*
X196237474Y-158737042D01*
X196451992Y-158560992D01*
X196628042Y-158346474D01*
X196758859Y-158101733D01*
X196839415Y-157836173D01*
X196866616Y-157560000D01*
X196839415Y-157283827D01*
X196758859Y-157018267D01*
X196628042Y-156773526D01*
X196451992Y-156559008D01*
X196237474Y-156382958D01*
X195992733Y-156252141D01*
X195727173Y-156171585D01*
X195520203Y-156151200D01*
X195131797Y-156151200D01*
X194924827Y-156171585D01*
X194659267Y-156252141D01*
X194414526Y-156382958D01*
X194200008Y-156559008D01*
X194023958Y-156773526D01*
X193893141Y-157018267D01*
X193812585Y-157283827D01*
X193785384Y-157560000D01*
X193812585Y-157836173D01*
X193893141Y-158101733D01*
X194023958Y-158346474D01*
X194200008Y-158560992D01*
X194414526Y-158737042D01*
X194475472Y-158769618D01*
X194423430Y-158794947D01*
X194191571Y-158970951D01*
X193998504Y-159188807D01*
X193851648Y-159440142D01*
X193759524Y-159703110D01*
X193038800Y-159703110D01*
X193038800Y-151526122D01*
X193255825Y-151526122D01*
X193320425Y-151739094D01*
X193470469Y-152044329D01*
X193677178Y-152314427D01*
X193932609Y-152539008D01*
X194226946Y-152709442D01*
X194548877Y-152819179D01*
X194818000Y-152701600D01*
X194818000Y-151257000D01*
X195072000Y-151257000D01*
X195072000Y-152701600D01*
X195341123Y-152819179D01*
X195663054Y-152709442D01*
X195957391Y-152539008D01*
X196212822Y-152314427D01*
X196419531Y-152044329D01*
X196569575Y-151739094D01*
X196634175Y-151526122D01*
X196516125Y-151257000D01*
X195072000Y-151257000D01*
X194818000Y-151257000D01*
X193373875Y-151257000D01*
X193255825Y-151526122D01*
X193038800Y-151526122D01*
X193038800Y-150733878D01*
X193255825Y-150733878D01*
X193373875Y-151003000D01*
X194818000Y-151003000D01*
X194818000Y-149558400D01*
X195072000Y-149558400D01*
X195072000Y-151003000D01*
X196516125Y-151003000D01*
X196634175Y-150733878D01*
X196569575Y-150520906D01*
X196419531Y-150215671D01*
X196212822Y-149945573D01*
X195957391Y-149720992D01*
X195663054Y-149550558D01*
X195341123Y-149440821D01*
X195072000Y-149558400D01*
X194818000Y-149558400D01*
X194548877Y-149440821D01*
X194226946Y-149550558D01*
X193932609Y-149720992D01*
X193677178Y-149945573D01*
X193470469Y-150215671D01*
X193320425Y-150520906D01*
X193255825Y-150733878D01*
X193038800Y-150733878D01*
X193038800Y-147166472D01*
X198292200Y-147166472D01*
X198292200Y-147473528D01*
X198352104Y-147774685D01*
X198469610Y-148058369D01*
X198640201Y-148313677D01*
X198857323Y-148530799D01*
X198923900Y-148575284D01*
X198923901Y-154720460D01*
X198919416Y-154766000D01*
X198937315Y-154947743D01*
X198990329Y-155122502D01*
X199076416Y-155283561D01*
X199163242Y-155389359D01*
X199163245Y-155389362D01*
X199192271Y-155424730D01*
X199227639Y-155453756D01*
X199605900Y-155832017D01*
X199605901Y-157447715D01*
X199539323Y-157492201D01*
X199322201Y-157709323D01*
X199151610Y-157964631D01*
X199034104Y-158248315D01*
X198974200Y-158549472D01*
X198974200Y-158856528D01*
X199034104Y-159157685D01*
X199151610Y-159441369D01*
X199322201Y-159696677D01*
X199539323Y-159913799D01*
X199794631Y-160084390D01*
X200078315Y-160201896D01*
X200379472Y-160261800D01*
X200686528Y-160261800D01*
X200987685Y-160201896D01*
X201271369Y-160084390D01*
X201526677Y-159913799D01*
X201743799Y-159696677D01*
X201914390Y-159441369D01*
X202031896Y-159157685D01*
X202091800Y-158856528D01*
X202091800Y-158549472D01*
X202031896Y-158248315D01*
X201914390Y-157964631D01*
X201743799Y-157709323D01*
X201526677Y-157492201D01*
X201460100Y-157447716D01*
X201460100Y-155493537D01*
X201464585Y-155448000D01*
X201446685Y-155266256D01*
X201393672Y-155091498D01*
X201380074Y-155066058D01*
X201307585Y-154930439D01*
X201191730Y-154789270D01*
X201156358Y-154760241D01*
X200778100Y-154381983D01*
X200778100Y-150030000D01*
X203443497Y-150030000D01*
X203443497Y-152230000D01*
X203454286Y-152339544D01*
X203486239Y-152444878D01*
X203538127Y-152541954D01*
X203607957Y-152627043D01*
X203693046Y-152696873D01*
X203790122Y-152748761D01*
X203895456Y-152780714D01*
X204005000Y-152791503D01*
X206205000Y-152791503D01*
X206314544Y-152780714D01*
X206419878Y-152748761D01*
X206516954Y-152696873D01*
X206602043Y-152627043D01*
X206671873Y-152541954D01*
X206723761Y-152444878D01*
X206755714Y-152339544D01*
X206766503Y-152230000D01*
X206766503Y-150030000D01*
X206755714Y-149920456D01*
X206723761Y-149815122D01*
X206671873Y-149718046D01*
X206664359Y-149708890D01*
X206838524Y-149708890D01*
X206883175Y-149856099D01*
X207008359Y-150118920D01*
X207182412Y-150352269D01*
X207398645Y-150547178D01*
X207524255Y-150622000D01*
X207398645Y-150696822D01*
X207182412Y-150891731D01*
X207008359Y-151125080D01*
X206883175Y-151387901D01*
X206838524Y-151535110D01*
X206959845Y-151765000D01*
X208153000Y-151765000D01*
X208153000Y-149479000D01*
X208407000Y-149479000D01*
X208407000Y-151765000D01*
X209600155Y-151765000D01*
X209721476Y-151535110D01*
X209676825Y-151387901D01*
X209551641Y-151125080D01*
X209377588Y-150891731D01*
X209161355Y-150696822D01*
X209035745Y-150622000D01*
X209161355Y-150547178D01*
X209377588Y-150352269D01*
X209551641Y-150118920D01*
X209676825Y-149856099D01*
X209721476Y-149708890D01*
X209600155Y-149479000D01*
X208407000Y-149479000D01*
X208153000Y-149479000D01*
X206959845Y-149479000D01*
X206838524Y-149708890D01*
X206664359Y-149708890D01*
X206602043Y-149632957D01*
X206516954Y-149563127D01*
X206419878Y-149511239D01*
X206314544Y-149479286D01*
X206205000Y-149468497D01*
X204005000Y-149468497D01*
X203895456Y-149479286D01*
X203790122Y-149511239D01*
X203693046Y-149563127D01*
X203607957Y-149632957D01*
X203538127Y-149718046D01*
X203486239Y-149815122D01*
X203454286Y-149920456D01*
X203443497Y-150030000D01*
X200778100Y-150030000D01*
X200778100Y-148995110D01*
X206838524Y-148995110D01*
X206959845Y-149225000D01*
X208153000Y-149225000D01*
X208153000Y-149205000D01*
X208407000Y-149205000D01*
X208407000Y-149225000D01*
X209600155Y-149225000D01*
X209721476Y-148995110D01*
X209676825Y-148847901D01*
X209551641Y-148585080D01*
X209377588Y-148351731D01*
X209224956Y-148214151D01*
X209239544Y-148212714D01*
X209344878Y-148180761D01*
X209441954Y-148128873D01*
X209527043Y-148059043D01*
X209596873Y-147973954D01*
X209648761Y-147876878D01*
X209680714Y-147771544D01*
X209691503Y-147662000D01*
X209691503Y-145962000D01*
X209680714Y-145852456D01*
X209648761Y-145747122D01*
X209596873Y-145650046D01*
X209527043Y-145564957D01*
X209441954Y-145495127D01*
X209344878Y-145443239D01*
X209239544Y-145411286D01*
X209130000Y-145400497D01*
X207430000Y-145400497D01*
X207320456Y-145411286D01*
X207215122Y-145443239D01*
X207118046Y-145495127D01*
X207032957Y-145564957D01*
X206963127Y-145650046D01*
X206911239Y-145747122D01*
X206879286Y-145852456D01*
X206868497Y-145962000D01*
X206868497Y-147662000D01*
X206879286Y-147771544D01*
X206911239Y-147876878D01*
X206963127Y-147973954D01*
X207032957Y-148059043D01*
X207118046Y-148128873D01*
X207215122Y-148180761D01*
X207320456Y-148212714D01*
X207335044Y-148214151D01*
X207182412Y-148351731D01*
X207008359Y-148585080D01*
X206883175Y-148847901D01*
X206838524Y-148995110D01*
X200778100Y-148995110D01*
X200778100Y-148575284D01*
X200844677Y-148530799D01*
X201061799Y-148313677D01*
X201232390Y-148058369D01*
X201349896Y-147774685D01*
X201409800Y-147473528D01*
X201409800Y-147166472D01*
X201349896Y-146865315D01*
X201232390Y-146581631D01*
X201061799Y-146326323D01*
X200844677Y-146109201D01*
X200589369Y-145938610D01*
X200305685Y-145821104D01*
X200004528Y-145761200D01*
X199697472Y-145761200D01*
X199396315Y-145821104D01*
X199112631Y-145938610D01*
X198857323Y-146109201D01*
X198640201Y-146326323D01*
X198469610Y-146581631D01*
X198352104Y-146865315D01*
X198292200Y-147166472D01*
X193038800Y-147166472D01*
X193038800Y-146279157D01*
X193219586Y-146478519D01*
X193445580Y-146646037D01*
X193699913Y-146766246D01*
X193833961Y-146806904D01*
X194056000Y-146684915D01*
X194056000Y-145542000D01*
X194310000Y-145542000D01*
X194310000Y-146684915D01*
X194532039Y-146806904D01*
X194666087Y-146766246D01*
X194920420Y-146646037D01*
X195146414Y-146478519D01*
X195335385Y-146270131D01*
X195480070Y-146028881D01*
X195574909Y-145764040D01*
X195453624Y-145542000D01*
X194310000Y-145542000D01*
X194056000Y-145542000D01*
X194036000Y-145542000D01*
X194036000Y-145288000D01*
X194056000Y-145288000D01*
X194056000Y-144145085D01*
X194310000Y-144145085D01*
X194310000Y-145288000D01*
X195453624Y-145288000D01*
X195574909Y-145065960D01*
X195480070Y-144801119D01*
X195335385Y-144559869D01*
X195146414Y-144351481D01*
X194920420Y-144183963D01*
X194666087Y-144063754D01*
X194532039Y-144023096D01*
X194310000Y-144145085D01*
X194056000Y-144145085D01*
X193833961Y-144023096D01*
X193699913Y-144063754D01*
X193445580Y-144183963D01*
X193219586Y-144351481D01*
X193038800Y-144550843D01*
X193038800Y-143725000D01*
X195996928Y-143725000D01*
X196009188Y-143849482D01*
X196045498Y-143969180D01*
X196104463Y-144079494D01*
X196183815Y-144176185D01*
X196280506Y-144255537D01*
X196390820Y-144314502D01*
X196510518Y-144350812D01*
X196635000Y-144363072D01*
X197199250Y-144360000D01*
X197358000Y-144201250D01*
X197358000Y-143002000D01*
X197612000Y-143002000D01*
X197612000Y-144201250D01*
X197770750Y-144360000D01*
X198335000Y-144363072D01*
X198459482Y-144350812D01*
X198579180Y-144314502D01*
X198689494Y-144255537D01*
X198786185Y-144176185D01*
X198865537Y-144079494D01*
X198924502Y-143969180D01*
X198948966Y-143888534D01*
X199024731Y-143972588D01*
X199258080Y-144146641D01*
X199520901Y-144271825D01*
X199668110Y-144316476D01*
X199898000Y-144195155D01*
X199898000Y-143002000D01*
X200152000Y-143002000D01*
X200152000Y-144195155D01*
X200381890Y-144316476D01*
X200529099Y-144271825D01*
X200791920Y-144146641D01*
X201025269Y-143972588D01*
X201220178Y-143756355D01*
X201295000Y-143630745D01*
X201369822Y-143756355D01*
X201564731Y-143972588D01*
X201798080Y-144146641D01*
X202060901Y-144271825D01*
X202208110Y-144316476D01*
X202438000Y-144195155D01*
X202438000Y-143002000D01*
X200152000Y-143002000D01*
X199898000Y-143002000D01*
X197612000Y-143002000D01*
X197358000Y-143002000D01*
X196158750Y-143002000D01*
X196000000Y-143160750D01*
X195996928Y-143725000D01*
X193038800Y-143725000D01*
X193038800Y-142025000D01*
X195996928Y-142025000D01*
X196000000Y-142589250D01*
X196158750Y-142748000D01*
X197358000Y-142748000D01*
X197358000Y-141548750D01*
X197612000Y-141548750D01*
X197612000Y-142748000D01*
X199898000Y-142748000D01*
X199898000Y-141554845D01*
X200152000Y-141554845D01*
X200152000Y-142748000D01*
X202438000Y-142748000D01*
X202438000Y-141554845D01*
X202208110Y-141433524D01*
X202060901Y-141478175D01*
X201798080Y-141603359D01*
X201564731Y-141777412D01*
X201369822Y-141993645D01*
X201295000Y-142119255D01*
X201220178Y-141993645D01*
X201025269Y-141777412D01*
X200791920Y-141603359D01*
X200529099Y-141478175D01*
X200381890Y-141433524D01*
X200152000Y-141554845D01*
X199898000Y-141554845D01*
X199668110Y-141433524D01*
X199520901Y-141478175D01*
X199258080Y-141603359D01*
X199024731Y-141777412D01*
X198948966Y-141861466D01*
X198924502Y-141780820D01*
X198865537Y-141670506D01*
X198786185Y-141573815D01*
X198689494Y-141494463D01*
X198579180Y-141435498D01*
X198459482Y-141399188D01*
X198335000Y-141386928D01*
X197770750Y-141390000D01*
X197612000Y-141548750D01*
X197358000Y-141548750D01*
X197199250Y-141390000D01*
X196635000Y-141386928D01*
X196510518Y-141399188D01*
X196390820Y-141435498D01*
X196280506Y-141494463D01*
X196183815Y-141573815D01*
X196104463Y-141670506D01*
X196045498Y-141780820D01*
X196009188Y-141900518D01*
X195996928Y-142025000D01*
X193038800Y-142025000D01*
X193038800Y-139810740D01*
X195993964Y-139810740D01*
X196042606Y-139971107D01*
X196172764Y-140242414D01*
X196353351Y-140483116D01*
X196577427Y-140683962D01*
X196836380Y-140837234D01*
X197120259Y-140937041D01*
X197358000Y-140816992D01*
X197358000Y-139573000D01*
X197612000Y-139573000D01*
X197612000Y-140816992D01*
X197849741Y-140937041D01*
X198133620Y-140837234D01*
X198392573Y-140683962D01*
X198616649Y-140483116D01*
X198797236Y-140242414D01*
X198927394Y-139971107D01*
X198976036Y-139810740D01*
X198855378Y-139573000D01*
X197612000Y-139573000D01*
X197358000Y-139573000D01*
X196114622Y-139573000D01*
X195993964Y-139810740D01*
X193038800Y-139810740D01*
X193038800Y-138528359D01*
X193127551Y-138661185D01*
X193316815Y-138850449D01*
X193539367Y-138999153D01*
X193786653Y-139101582D01*
X194049170Y-139153800D01*
X194316830Y-139153800D01*
X194579347Y-139101582D01*
X194628408Y-139081260D01*
X195993964Y-139081260D01*
X196114622Y-139319000D01*
X197358000Y-139319000D01*
X197358000Y-138075008D01*
X197612000Y-138075008D01*
X197612000Y-139319000D01*
X198855378Y-139319000D01*
X198976036Y-139081260D01*
X198927394Y-138920893D01*
X198797236Y-138649586D01*
X198616649Y-138408884D01*
X198392573Y-138208038D01*
X198133620Y-138054766D01*
X197849741Y-137954959D01*
X197612000Y-138075008D01*
X197358000Y-138075008D01*
X197120259Y-137954959D01*
X196836380Y-138054766D01*
X196577427Y-138208038D01*
X196353351Y-138408884D01*
X196172764Y-138649586D01*
X196042606Y-138920893D01*
X195993964Y-139081260D01*
X194628408Y-139081260D01*
X194826633Y-138999153D01*
X195049185Y-138850449D01*
X195238449Y-138661185D01*
X195387153Y-138438633D01*
X195489582Y-138191347D01*
X195541800Y-137928830D01*
X195541800Y-137661170D01*
X195489582Y-137398653D01*
X195387153Y-137151367D01*
X195238449Y-136928815D01*
X195049185Y-136739551D01*
X194826633Y-136590847D01*
X194579347Y-136488418D01*
X194316830Y-136436200D01*
X194049170Y-136436200D01*
X193786653Y-136488418D01*
X193539367Y-136590847D01*
X193316815Y-136739551D01*
X193127551Y-136928815D01*
X193038800Y-137061641D01*
X193038800Y-133652862D01*
X194386200Y-133652862D01*
X194386200Y-134063138D01*
X194466241Y-134465530D01*
X194623246Y-134844576D01*
X194851183Y-135185708D01*
X195141292Y-135475817D01*
X195482424Y-135703754D01*
X195861470Y-135860759D01*
X196263862Y-135940800D01*
X196674138Y-135940800D01*
X197076530Y-135860759D01*
X197455576Y-135703754D01*
X197796708Y-135475817D01*
X198086817Y-135185708D01*
X198314754Y-134844576D01*
X198471759Y-134465530D01*
X198551800Y-134063138D01*
X198551800Y-133652862D01*
X198471759Y-133250470D01*
X198314754Y-132871424D01*
X198086817Y-132530292D01*
X197796708Y-132240183D01*
X197455576Y-132012246D01*
X197076530Y-131855241D01*
X196674138Y-131775200D01*
X196263862Y-131775200D01*
X195861470Y-131855241D01*
X195482424Y-132012246D01*
X195141292Y-132240183D01*
X194851183Y-132530292D01*
X194623246Y-132871424D01*
X194466241Y-133250470D01*
X194386200Y-133652862D01*
X193038800Y-133652862D01*
X193038800Y-128953862D01*
X194386200Y-128953862D01*
X194386200Y-129364138D01*
X194466241Y-129766530D01*
X194623246Y-130145576D01*
X194851183Y-130486708D01*
X195141292Y-130776817D01*
X195482424Y-131004754D01*
X195861470Y-131161759D01*
X196263862Y-131241800D01*
X196674138Y-131241800D01*
X197076530Y-131161759D01*
X197455576Y-131004754D01*
X197796708Y-130776817D01*
X198086817Y-130486708D01*
X198314754Y-130145576D01*
X198471759Y-129766530D01*
X198551800Y-129364138D01*
X198551800Y-129072640D01*
X199093416Y-129072640D01*
X199111315Y-129254383D01*
X199164329Y-129429142D01*
X199250416Y-129590201D01*
X199337242Y-129695999D01*
X199337245Y-129696002D01*
X199366271Y-129731370D01*
X199401638Y-129760395D01*
X202571220Y-132929977D01*
X202404140Y-133333343D01*
X202296200Y-133875997D01*
X202296200Y-134429283D01*
X202404140Y-134971937D01*
X202615873Y-135483106D01*
X202923262Y-135943146D01*
X203314494Y-136334378D01*
X203774534Y-136641767D01*
X204285703Y-136853500D01*
X204828357Y-136961440D01*
X205381643Y-136961440D01*
X205924297Y-136853500D01*
X206435466Y-136641767D01*
X206895506Y-136334378D01*
X207286738Y-135943146D01*
X207594127Y-135483106D01*
X207805860Y-134971937D01*
X207913800Y-134429283D01*
X207913800Y-133875997D01*
X207805860Y-133333343D01*
X207594127Y-132822174D01*
X207579137Y-132799739D01*
X208237706Y-132799739D01*
X208453828Y-133166498D01*
X208913705Y-133407178D01*
X209411698Y-133553515D01*
X209928671Y-133599888D01*
X210444759Y-133544513D01*
X210940126Y-133389519D01*
X211357372Y-133166498D01*
X211573494Y-132799739D01*
X209905600Y-131131845D01*
X208237706Y-132799739D01*
X207579137Y-132799739D01*
X207286738Y-132362134D01*
X206895506Y-131970902D01*
X206435466Y-131663513D01*
X205924297Y-131451780D01*
X205381643Y-131343840D01*
X204828357Y-131343840D01*
X204285703Y-131451780D01*
X203882337Y-131618860D01*
X203238788Y-130975311D01*
X207257952Y-130975311D01*
X207313327Y-131491399D01*
X207468321Y-131986766D01*
X207691342Y-132404012D01*
X208058101Y-132620134D01*
X209725995Y-130952240D01*
X210085205Y-130952240D01*
X211753099Y-132620134D01*
X212119858Y-132404012D01*
X212360538Y-131944135D01*
X212506875Y-131446142D01*
X212553248Y-130929169D01*
X212497873Y-130413081D01*
X212342879Y-129917714D01*
X212119858Y-129500468D01*
X211753099Y-129284346D01*
X210085205Y-130952240D01*
X209725995Y-130952240D01*
X208058101Y-129284346D01*
X207691342Y-129500468D01*
X207450662Y-129960345D01*
X207304325Y-130458338D01*
X207257952Y-130975311D01*
X203238788Y-130975311D01*
X202063476Y-129799999D01*
X203437106Y-129799999D01*
X203653228Y-130166758D01*
X204113105Y-130407438D01*
X204611098Y-130553775D01*
X205128071Y-130600148D01*
X205644159Y-130544773D01*
X206139526Y-130389779D01*
X206556772Y-130166758D01*
X206772894Y-129799999D01*
X205105000Y-128132105D01*
X203437106Y-129799999D01*
X202063476Y-129799999D01*
X200952100Y-128688623D01*
X200952100Y-127975571D01*
X202457352Y-127975571D01*
X202512727Y-128491659D01*
X202667721Y-128987026D01*
X202890742Y-129404272D01*
X203257501Y-129620394D01*
X204925395Y-127952500D01*
X205284605Y-127952500D01*
X206952499Y-129620394D01*
X207319258Y-129404272D01*
X207476019Y-129104741D01*
X208237706Y-129104741D01*
X209905600Y-130772635D01*
X211573494Y-129104741D01*
X211357372Y-128737982D01*
X210897495Y-128497302D01*
X210399502Y-128350965D01*
X209882529Y-128304592D01*
X209366441Y-128359967D01*
X208871074Y-128514961D01*
X208453828Y-128737982D01*
X208237706Y-129104741D01*
X207476019Y-129104741D01*
X207559938Y-128944395D01*
X207706275Y-128446402D01*
X207752648Y-127929429D01*
X207697273Y-127413341D01*
X207542279Y-126917974D01*
X207319258Y-126500728D01*
X206952499Y-126284606D01*
X205284605Y-127952500D01*
X204925395Y-127952500D01*
X203257501Y-126284606D01*
X202890742Y-126500728D01*
X202650062Y-126960605D01*
X202503725Y-127458598D01*
X202457352Y-127975571D01*
X200952100Y-127975571D01*
X200952100Y-127589463D01*
X200938685Y-127453257D01*
X200885672Y-127278498D01*
X200799585Y-127117439D01*
X200683730Y-126976270D01*
X200542560Y-126860415D01*
X200381501Y-126774328D01*
X200206742Y-126721315D01*
X200025000Y-126703415D01*
X199843257Y-126721315D01*
X199668498Y-126774328D01*
X199507439Y-126860415D01*
X199366270Y-126976270D01*
X199250415Y-127117440D01*
X199164328Y-127278499D01*
X199111315Y-127453258D01*
X199097900Y-127589464D01*
X199097901Y-129027101D01*
X199093416Y-129072640D01*
X198551800Y-129072640D01*
X198551800Y-128953862D01*
X198471759Y-128551470D01*
X198314754Y-128172424D01*
X198086817Y-127831292D01*
X197796708Y-127541183D01*
X197455576Y-127313246D01*
X197076530Y-127156241D01*
X196674138Y-127076200D01*
X196263862Y-127076200D01*
X195861470Y-127156241D01*
X195482424Y-127313246D01*
X195141292Y-127541183D01*
X194851183Y-127831292D01*
X194623246Y-128172424D01*
X194466241Y-128551470D01*
X194386200Y-128953862D01*
X193038800Y-128953862D01*
X193038800Y-124254862D01*
X194386200Y-124254862D01*
X194386200Y-124665138D01*
X194466241Y-125067530D01*
X194623246Y-125446576D01*
X194851183Y-125787708D01*
X195141292Y-126077817D01*
X195482424Y-126305754D01*
X195861470Y-126462759D01*
X196263862Y-126542800D01*
X196674138Y-126542800D01*
X197076530Y-126462759D01*
X197455576Y-126305754D01*
X197756024Y-126105001D01*
X203437106Y-126105001D01*
X205105000Y-127772895D01*
X206772894Y-126105001D01*
X206556772Y-125738242D01*
X206096895Y-125497562D01*
X205598902Y-125351225D01*
X205081929Y-125304852D01*
X204565841Y-125360227D01*
X204070474Y-125515221D01*
X203653228Y-125738242D01*
X203437106Y-126105001D01*
X197756024Y-126105001D01*
X197796708Y-126077817D01*
X198086817Y-125787708D01*
X198314754Y-125446576D01*
X198471759Y-125067530D01*
X198551800Y-124665138D01*
X198551800Y-124254862D01*
X198471759Y-123852470D01*
X198314754Y-123473424D01*
X198086817Y-123132292D01*
X197796708Y-122842183D01*
X197455576Y-122614246D01*
X197076530Y-122457241D01*
X196674138Y-122377200D01*
X196263862Y-122377200D01*
X195861470Y-122457241D01*
X195482424Y-122614246D01*
X195141292Y-122842183D01*
X194851183Y-123132292D01*
X194623246Y-123473424D01*
X194466241Y-123852470D01*
X194386200Y-124254862D01*
X193038800Y-124254862D01*
X193038800Y-122585997D01*
X193078085Y-122185341D01*
X193185440Y-121829761D01*
X193359816Y-121501807D01*
X193594571Y-121213969D01*
X193880768Y-120977208D01*
X194207497Y-120800546D01*
X194562315Y-120690711D01*
X194961075Y-120648800D01*
X215952393Y-120648800D01*
X215922957Y-120672957D01*
G04 #@! TA.AperFunction,Conductor*
D27*
G36*
X215922957Y-120672957D02*
G01*
X215853127Y-120758046D01*
X215801239Y-120855122D01*
X215769286Y-120960456D01*
X215758497Y-121070000D01*
X215758497Y-122770000D01*
X215769286Y-122879544D01*
X215801239Y-122984878D01*
X215853127Y-123081954D01*
X215922957Y-123167043D01*
X216008046Y-123236873D01*
X216105122Y-123288761D01*
X216210456Y-123320714D01*
X216225044Y-123322151D01*
X216072412Y-123459731D01*
X215898359Y-123693080D01*
X215773175Y-123955901D01*
X215728524Y-124103110D01*
X215849845Y-124333000D01*
X217043000Y-124333000D01*
X217043000Y-124313000D01*
X217297000Y-124313000D01*
X217297000Y-124333000D01*
X217317000Y-124333000D01*
X217317000Y-124587000D01*
X217297000Y-124587000D01*
X217297000Y-124607000D01*
X217043000Y-124607000D01*
X217043000Y-124587000D01*
X215849845Y-124587000D01*
X215728524Y-124816890D01*
X215773175Y-124964099D01*
X215898359Y-125226920D01*
X216072412Y-125460269D01*
X216288645Y-125655178D01*
X216478046Y-125767999D01*
X216271942Y-125905713D01*
X216104755Y-126072900D01*
X215945529Y-126072900D01*
X215899999Y-126068416D01*
X215854469Y-126072900D01*
X215854463Y-126072900D01*
X215736846Y-126084484D01*
X215718256Y-126086315D01*
X215666742Y-126101942D01*
X215543498Y-126139328D01*
X215382439Y-126225415D01*
X215382437Y-126225416D01*
X215382438Y-126225416D01*
X215276640Y-126312242D01*
X215276638Y-126312244D01*
X215241270Y-126341270D01*
X215212244Y-126376638D01*
X214006643Y-127582240D01*
X213971270Y-127611270D01*
X213855415Y-127752440D01*
X213769328Y-127913499D01*
X213716315Y-128088258D01*
X213702900Y-128224464D01*
X213702900Y-128224470D01*
X213698416Y-128270000D01*
X213702900Y-128315530D01*
X213702901Y-133680982D01*
X212402062Y-134981821D01*
X212323528Y-134966200D01*
X212016472Y-134966200D01*
X211715315Y-135026104D01*
X211431631Y-135143610D01*
X211176323Y-135314201D01*
X210959201Y-135531323D01*
X210788610Y-135786631D01*
X210671104Y-136070315D01*
X210611200Y-136371472D01*
X210611200Y-136678528D01*
X210671104Y-136979685D01*
X210788610Y-137263369D01*
X210959201Y-137518677D01*
X211176323Y-137735799D01*
X211431631Y-137906390D01*
X211715315Y-138023896D01*
X212016472Y-138083800D01*
X212323528Y-138083800D01*
X212624685Y-138023896D01*
X212908369Y-137906390D01*
X213163677Y-137735799D01*
X213380799Y-137518677D01*
X213551390Y-137263369D01*
X213668896Y-136979685D01*
X213728800Y-136678528D01*
X213728800Y-136371472D01*
X213713179Y-136292938D01*
X215253357Y-134752760D01*
X215288730Y-134723730D01*
X215404585Y-134582561D01*
X215490672Y-134421502D01*
X215543685Y-134246743D01*
X215557100Y-134110537D01*
X215557100Y-134110528D01*
X215561584Y-134065001D01*
X215557100Y-134019474D01*
X215557100Y-128654017D01*
X216194386Y-128016731D01*
X216271942Y-128094287D01*
X216478046Y-128232001D01*
X216288645Y-128344822D01*
X216072412Y-128539731D01*
X215898359Y-128773080D01*
X215773175Y-129035901D01*
X215728524Y-129183110D01*
X215849845Y-129413000D01*
X217043000Y-129413000D01*
X217043000Y-129393000D01*
X217297000Y-129393000D01*
X217297000Y-129413000D01*
X217317000Y-129413000D01*
X217317000Y-129667000D01*
X217297000Y-129667000D01*
X217297000Y-129687000D01*
X217043000Y-129687000D01*
X217043000Y-129667000D01*
X215849845Y-129667000D01*
X215728524Y-129896890D01*
X215773175Y-130044099D01*
X215898359Y-130306920D01*
X216072412Y-130540269D01*
X216288645Y-130735178D01*
X216478046Y-130847999D01*
X216271942Y-130985713D01*
X216075713Y-131181942D01*
X215921537Y-131412683D01*
X215815339Y-131669068D01*
X215761200Y-131941245D01*
X215761200Y-132218755D01*
X215815339Y-132490932D01*
X215921537Y-132747317D01*
X216075713Y-132978058D01*
X216271942Y-133174287D01*
X216502683Y-133328463D01*
X216759068Y-133434661D01*
X217031245Y-133488800D01*
X217308755Y-133488800D01*
X217580932Y-133434661D01*
X217837317Y-133328463D01*
X218068058Y-133174287D01*
X218264287Y-132978058D01*
X218418463Y-132747317D01*
X218441200Y-132692424D01*
X218441200Y-135621720D01*
X218380799Y-135531323D01*
X218163677Y-135314201D01*
X217908369Y-135143610D01*
X217624685Y-135026104D01*
X217323528Y-134966200D01*
X217016472Y-134966200D01*
X216715315Y-135026104D01*
X216431631Y-135143610D01*
X216176323Y-135314201D01*
X215959201Y-135531323D01*
X215788610Y-135786631D01*
X215671104Y-136070315D01*
X215611200Y-136371472D01*
X215611200Y-136678528D01*
X215626821Y-136757062D01*
X214324143Y-138059740D01*
X214288770Y-138088770D01*
X214172915Y-138229940D01*
X214086828Y-138390999D01*
X214057039Y-138489201D01*
X214039809Y-138546000D01*
X214033815Y-138565758D01*
X214020400Y-138701964D01*
X214020400Y-138701970D01*
X214015916Y-138747500D01*
X214020400Y-138793030D01*
X214020401Y-140268482D01*
X214006646Y-140282237D01*
X214006640Y-140282242D01*
X212822683Y-141466200D01*
X212586245Y-141466200D01*
X212314068Y-141520339D01*
X212057683Y-141626537D01*
X211826942Y-141780713D01*
X211630713Y-141976942D01*
X211476537Y-142207683D01*
X211455000Y-142259678D01*
X211433463Y-142207683D01*
X211279287Y-141976942D01*
X211083058Y-141780713D01*
X210852317Y-141626537D01*
X210595932Y-141520339D01*
X210323755Y-141466200D01*
X210046245Y-141466200D01*
X209774068Y-141520339D01*
X209517683Y-141626537D01*
X209286942Y-141780713D01*
X209119755Y-141947900D01*
X208710245Y-141947900D01*
X208543058Y-141780713D01*
X208312317Y-141626537D01*
X208055932Y-141520339D01*
X207783755Y-141466200D01*
X207506245Y-141466200D01*
X207234068Y-141520339D01*
X206977683Y-141626537D01*
X206746942Y-141780713D01*
X206579755Y-141947900D01*
X206170245Y-141947900D01*
X206032100Y-141809755D01*
X206032100Y-140904834D01*
X206114544Y-140896714D01*
X206219878Y-140864761D01*
X206316954Y-140812873D01*
X206402043Y-140743043D01*
X206471873Y-140657954D01*
X206523761Y-140560878D01*
X206555714Y-140455544D01*
X206566503Y-140346000D01*
X206566503Y-139546472D01*
X210611200Y-139546472D01*
X210611200Y-139853528D01*
X210671104Y-140154685D01*
X210788610Y-140438369D01*
X210959201Y-140693677D01*
X211176323Y-140910799D01*
X211431631Y-141081390D01*
X211715315Y-141198896D01*
X212016472Y-141258800D01*
X212323528Y-141258800D01*
X212624685Y-141198896D01*
X212908369Y-141081390D01*
X213163677Y-140910799D01*
X213380799Y-140693677D01*
X213551390Y-140438369D01*
X213668896Y-140154685D01*
X213728800Y-139853528D01*
X213728800Y-139546472D01*
X213668896Y-139245315D01*
X213551390Y-138961631D01*
X213380799Y-138706323D01*
X213163677Y-138489201D01*
X212908369Y-138318610D01*
X212624685Y-138201104D01*
X212323528Y-138141200D01*
X212016472Y-138141200D01*
X211715315Y-138201104D01*
X211431631Y-138318610D01*
X211176323Y-138489201D01*
X210959201Y-138706323D01*
X210788610Y-138961631D01*
X210671104Y-139245315D01*
X210611200Y-139546472D01*
X206566503Y-139546472D01*
X206566503Y-138546000D01*
X206555714Y-138436456D01*
X206523761Y-138331122D01*
X206471873Y-138234046D01*
X206402043Y-138148957D01*
X206316954Y-138079127D01*
X206219878Y-138027239D01*
X206114544Y-137995286D01*
X206005000Y-137984497D01*
X204205000Y-137984497D01*
X204095456Y-137995286D01*
X203990122Y-138027239D01*
X203893046Y-138079127D01*
X203807957Y-138148957D01*
X203738127Y-138234046D01*
X203686239Y-138331122D01*
X203654286Y-138436456D01*
X203643497Y-138546000D01*
X203643497Y-140346000D01*
X203654286Y-140455544D01*
X203686239Y-140560878D01*
X203738127Y-140657954D01*
X203807957Y-140743043D01*
X203893046Y-140812873D01*
X203990122Y-140864761D01*
X204095456Y-140896714D01*
X204177901Y-140904834D01*
X204177900Y-141809755D01*
X204010713Y-141976942D01*
X203872999Y-142183046D01*
X203760178Y-141993645D01*
X203565269Y-141777412D01*
X203331920Y-141603359D01*
X203069099Y-141478175D01*
X202921890Y-141433524D01*
X202692000Y-141554845D01*
X202692000Y-142748000D01*
X202712000Y-142748000D01*
X202712000Y-143002000D01*
X202692000Y-143002000D01*
X202692000Y-144195155D01*
X202921890Y-144316476D01*
X203069099Y-144271825D01*
X203331920Y-144146641D01*
X203565269Y-143972588D01*
X203760178Y-143756355D01*
X203872999Y-143566954D01*
X204010713Y-143773058D01*
X204177900Y-143940245D01*
X204177901Y-145369454D01*
X204177900Y-145369464D01*
X204177900Y-145911575D01*
X204112631Y-145938610D01*
X203857323Y-146109201D01*
X203640201Y-146326323D01*
X203469610Y-146581631D01*
X203352104Y-146865315D01*
X203292200Y-147166472D01*
X203292200Y-147473528D01*
X203352104Y-147774685D01*
X203469610Y-148058369D01*
X203640201Y-148313677D01*
X203857323Y-148530799D01*
X204112631Y-148701390D01*
X204396315Y-148818896D01*
X204697472Y-148878800D01*
X205004528Y-148878800D01*
X205305685Y-148818896D01*
X205589369Y-148701390D01*
X205844677Y-148530799D01*
X206061799Y-148313677D01*
X206232390Y-148058369D01*
X206349896Y-147774685D01*
X206409800Y-147473528D01*
X206409800Y-147166472D01*
X206349896Y-146865315D01*
X206232390Y-146581631D01*
X206061799Y-146326323D01*
X206032100Y-146296624D01*
X206032100Y-143940245D01*
X206170245Y-143802100D01*
X206579755Y-143802100D01*
X206746942Y-143969287D01*
X206977683Y-144123463D01*
X207234068Y-144229661D01*
X207506245Y-144283800D01*
X207783755Y-144283800D01*
X208055932Y-144229661D01*
X208312317Y-144123463D01*
X208543058Y-143969287D01*
X208710245Y-143802100D01*
X209119755Y-143802100D01*
X209286942Y-143969287D01*
X209517683Y-144123463D01*
X209774068Y-144229661D01*
X210046245Y-144283800D01*
X210323755Y-144283800D01*
X210595932Y-144229661D01*
X210852317Y-144123463D01*
X211083058Y-143969287D01*
X211279287Y-143773058D01*
X211433463Y-143542317D01*
X211455000Y-143490322D01*
X211476537Y-143542317D01*
X211630713Y-143773058D01*
X211797901Y-143940246D01*
X211797900Y-149270536D01*
X211811315Y-149406742D01*
X211864328Y-149581501D01*
X211950415Y-149742560D01*
X212066270Y-149883730D01*
X212207439Y-149999585D01*
X212368498Y-150085672D01*
X212543257Y-150138685D01*
X212725000Y-150156585D01*
X212906742Y-150138685D01*
X213081501Y-150085672D01*
X213242560Y-149999585D01*
X213383730Y-149883730D01*
X213499585Y-149742561D01*
X213585672Y-149581502D01*
X213638685Y-149406743D01*
X213652100Y-149270537D01*
X213652100Y-143940245D01*
X213819287Y-143773058D01*
X213973463Y-143542317D01*
X213995000Y-143490322D01*
X214016537Y-143542317D01*
X214170713Y-143773058D01*
X214337901Y-143940246D01*
X214337900Y-150872982D01*
X210135984Y-155074899D01*
X209538577Y-155074899D01*
X209634661Y-154842932D01*
X209688800Y-154570755D01*
X209688800Y-154293245D01*
X209634661Y-154021068D01*
X209528463Y-153764683D01*
X209374287Y-153533942D01*
X209178058Y-153337713D01*
X208971954Y-153199999D01*
X209161355Y-153087178D01*
X209377588Y-152892269D01*
X209551641Y-152658920D01*
X209676825Y-152396099D01*
X209721476Y-152248890D01*
X209600155Y-152019000D01*
X208407000Y-152019000D01*
X208407000Y-152039000D01*
X208153000Y-152039000D01*
X208153000Y-152019000D01*
X206959845Y-152019000D01*
X206838524Y-152248890D01*
X206883175Y-152396099D01*
X207008359Y-152658920D01*
X207182412Y-152892269D01*
X207398645Y-153087178D01*
X207588046Y-153199999D01*
X207381942Y-153337713D01*
X207185713Y-153533942D01*
X207031537Y-153764683D01*
X206925339Y-154021068D01*
X206871200Y-154293245D01*
X206871200Y-154570755D01*
X206925339Y-154842932D01*
X207021423Y-155074899D01*
X204646017Y-155074899D01*
X203188359Y-153617242D01*
X203082561Y-153530416D01*
X202921502Y-153444329D01*
X202746743Y-153391315D01*
X202565000Y-153373416D01*
X202383257Y-153391315D01*
X202208498Y-153444329D01*
X202047439Y-153530416D01*
X201906270Y-153646270D01*
X201790416Y-153787439D01*
X201704329Y-153948498D01*
X201651315Y-154123257D01*
X201633416Y-154305000D01*
X201651315Y-154486743D01*
X201704329Y-154661502D01*
X201790416Y-154822561D01*
X201877242Y-154928359D01*
X203574243Y-156625361D01*
X203603269Y-156660729D01*
X203638637Y-156689755D01*
X203638639Y-156689757D01*
X203713898Y-156751520D01*
X203744438Y-156776584D01*
X203905497Y-156862671D01*
X204027242Y-156899602D01*
X204080255Y-156915684D01*
X204098845Y-156917515D01*
X204216462Y-156929099D01*
X204216468Y-156929099D01*
X204261998Y-156933583D01*
X204307528Y-156929099D01*
X210474471Y-156929099D01*
X210520001Y-156933583D01*
X210565531Y-156929099D01*
X210565538Y-156929099D01*
X210701744Y-156915684D01*
X210876503Y-156862671D01*
X211037562Y-156776584D01*
X211178731Y-156660729D01*
X211207761Y-156625356D01*
X215888364Y-151944754D01*
X215923730Y-151915730D01*
X216039585Y-151774561D01*
X216125672Y-151613502D01*
X216178685Y-151438743D01*
X216192100Y-151302537D01*
X216192100Y-151302530D01*
X216196584Y-151257000D01*
X216192100Y-151211470D01*
X216192100Y-143940245D01*
X216359287Y-143773058D01*
X216471206Y-143605560D01*
X216558730Y-143533730D01*
X216587760Y-143498357D01*
X217793362Y-142292756D01*
X217828730Y-142263730D01*
X217944585Y-142122561D01*
X218030672Y-141961502D01*
X218067603Y-141839757D01*
X218083685Y-141786744D01*
X218095133Y-141670506D01*
X218097100Y-141650537D01*
X218097100Y-141650531D01*
X218101584Y-141605001D01*
X218097100Y-141559471D01*
X218097100Y-140955284D01*
X218163677Y-140910799D01*
X218380799Y-140693677D01*
X218441200Y-140603280D01*
X218441201Y-165101200D01*
X211136786Y-165101200D01*
X211177369Y-165084390D01*
X211432677Y-164913799D01*
X211649799Y-164696677D01*
X211820390Y-164441369D01*
X211937896Y-164157685D01*
X211997800Y-163856528D01*
X211997800Y-163549472D01*
X211937896Y-163248315D01*
X211899658Y-163156000D01*
X213372928Y-163156000D01*
X213385188Y-163280482D01*
X213421498Y-163400180D01*
X213480463Y-163510494D01*
X213559815Y-163607185D01*
X213656506Y-163686537D01*
X213766820Y-163745502D01*
X213886518Y-163781812D01*
X214011000Y-163794072D01*
X214725250Y-163791000D01*
X214884000Y-163632250D01*
X214884000Y-162433000D01*
X215138000Y-162433000D01*
X215138000Y-163632250D01*
X215296750Y-163791000D01*
X216011000Y-163794072D01*
X216135482Y-163781812D01*
X216255180Y-163745502D01*
X216365494Y-163686537D01*
X216462185Y-163607185D01*
X216541537Y-163510494D01*
X216600502Y-163400180D01*
X216636812Y-163280482D01*
X216649072Y-163156000D01*
X216646000Y-162591750D01*
X216487250Y-162433000D01*
X215138000Y-162433000D01*
X214884000Y-162433000D01*
X213534750Y-162433000D01*
X213376000Y-162591750D01*
X213372928Y-163156000D01*
X211899658Y-163156000D01*
X211820390Y-162964631D01*
X211649799Y-162709323D01*
X211432677Y-162492201D01*
X211177369Y-162321610D01*
X210893685Y-162204104D01*
X210592528Y-162144200D01*
X210285472Y-162144200D01*
X209984315Y-162204104D01*
X209700631Y-162321610D01*
X209445323Y-162492201D01*
X209228201Y-162709323D01*
X209057610Y-162964631D01*
X208940104Y-163248315D01*
X208880200Y-163549472D01*
X208880200Y-163856528D01*
X208940104Y-164157685D01*
X209057610Y-164441369D01*
X209228201Y-164696677D01*
X209445323Y-164913799D01*
X209700631Y-165084390D01*
X209741214Y-165101200D01*
X201230786Y-165101200D01*
X201271369Y-165084390D01*
X201526677Y-164913799D01*
X201743799Y-164696677D01*
X201914390Y-164441369D01*
X202031896Y-164157685D01*
X202091800Y-163856528D01*
X202091800Y-163549472D01*
X202038796Y-163283000D01*
X203212928Y-163283000D01*
X203225188Y-163407482D01*
X203261498Y-163527180D01*
X203320463Y-163637494D01*
X203399815Y-163734185D01*
X203496506Y-163813537D01*
X203606820Y-163872502D01*
X203726518Y-163908812D01*
X203851000Y-163921072D01*
X204565250Y-163918000D01*
X204724000Y-163759250D01*
X204724000Y-162560000D01*
X204978000Y-162560000D01*
X204978000Y-163759250D01*
X205136750Y-163918000D01*
X205851000Y-163921072D01*
X205975482Y-163908812D01*
X206095180Y-163872502D01*
X206205494Y-163813537D01*
X206302185Y-163734185D01*
X206381537Y-163637494D01*
X206440502Y-163527180D01*
X206476812Y-163407482D01*
X206489072Y-163283000D01*
X206486000Y-162718750D01*
X206327250Y-162560000D01*
X204978000Y-162560000D01*
X204724000Y-162560000D01*
X203374750Y-162560000D01*
X203216000Y-162718750D01*
X203212928Y-163283000D01*
X202038796Y-163283000D01*
X202031896Y-163248315D01*
X201914390Y-162964631D01*
X201743799Y-162709323D01*
X201526677Y-162492201D01*
X201271369Y-162321610D01*
X200987685Y-162204104D01*
X200686528Y-162144200D01*
X200379472Y-162144200D01*
X200078315Y-162204104D01*
X199794631Y-162321610D01*
X199539323Y-162492201D01*
X199322201Y-162709323D01*
X199151610Y-162964631D01*
X199034104Y-163248315D01*
X198974200Y-163549472D01*
X198974200Y-163856528D01*
X199034104Y-164157685D01*
X199151610Y-164441369D01*
X199322201Y-164696677D01*
X199539323Y-164913799D01*
X199794631Y-165084390D01*
X199835214Y-165101200D01*
X193038800Y-165101200D01*
X193038800Y-160416890D01*
X193759524Y-160416890D01*
X193851648Y-160679858D01*
X193998504Y-160931193D01*
X194191571Y-161149049D01*
X194279752Y-161215987D01*
X194150153Y-161285260D01*
X194027181Y-161386181D01*
X193926260Y-161509153D01*
X193851269Y-161649451D01*
X193805090Y-161801684D01*
X193789497Y-161960000D01*
X193789497Y-163160000D01*
X193805090Y-163318316D01*
X193851269Y-163470549D01*
X193926260Y-163610847D01*
X194027181Y-163733819D01*
X194150153Y-163834740D01*
X194290451Y-163909731D01*
X194442684Y-163955910D01*
X194601000Y-163971503D01*
X196051000Y-163971503D01*
X196209316Y-163955910D01*
X196361549Y-163909731D01*
X196501847Y-163834740D01*
X196624819Y-163733819D01*
X196725740Y-163610847D01*
X196800731Y-163470549D01*
X196846910Y-163318316D01*
X196862503Y-163160000D01*
X196862503Y-161960000D01*
X196846910Y-161801684D01*
X196800731Y-161649451D01*
X196765213Y-161583000D01*
X203212928Y-161583000D01*
X203216000Y-162147250D01*
X203374750Y-162306000D01*
X204724000Y-162306000D01*
X204724000Y-162286000D01*
X204978000Y-162286000D01*
X204978000Y-162306000D01*
X206327250Y-162306000D01*
X206486000Y-162147250D01*
X206489072Y-161583000D01*
X206476812Y-161458518D01*
X206476049Y-161456000D01*
X213372928Y-161456000D01*
X213376000Y-162020250D01*
X213534750Y-162179000D01*
X214884000Y-162179000D01*
X214884000Y-162159000D01*
X215138000Y-162159000D01*
X215138000Y-162179000D01*
X216487250Y-162179000D01*
X216646000Y-162020250D01*
X216649072Y-161456000D01*
X216636812Y-161331518D01*
X216600502Y-161211820D01*
X216541537Y-161101506D01*
X216462185Y-161004815D01*
X216365494Y-160925463D01*
X216255180Y-160866498D01*
X216135482Y-160830188D01*
X216133916Y-160830034D01*
X216161992Y-160806992D01*
X216338042Y-160592474D01*
X216468859Y-160347733D01*
X216549415Y-160082173D01*
X216576616Y-159806000D01*
X216549415Y-159529827D01*
X216468859Y-159264267D01*
X216338042Y-159019526D01*
X216161992Y-158805008D01*
X215947474Y-158628958D01*
X215702733Y-158498141D01*
X215437173Y-158417585D01*
X215230203Y-158397200D01*
X214791797Y-158397200D01*
X214584827Y-158417585D01*
X214319267Y-158498141D01*
X214074526Y-158628958D01*
X213860008Y-158805008D01*
X213683958Y-159019526D01*
X213553141Y-159264267D01*
X213472585Y-159529827D01*
X213445384Y-159806000D01*
X213472585Y-160082173D01*
X213553141Y-160347733D01*
X213683958Y-160592474D01*
X213860008Y-160806992D01*
X213888084Y-160830034D01*
X213886518Y-160830188D01*
X213766820Y-160866498D01*
X213656506Y-160925463D01*
X213559815Y-161004815D01*
X213480463Y-161101506D01*
X213421498Y-161211820D01*
X213385188Y-161331518D01*
X213372928Y-161456000D01*
X206476049Y-161456000D01*
X206440502Y-161338820D01*
X206381537Y-161228506D01*
X206302185Y-161131815D01*
X206205494Y-161052463D01*
X206095180Y-160993498D01*
X205975482Y-160957188D01*
X205973916Y-160957034D01*
X206001992Y-160933992D01*
X206178042Y-160719474D01*
X206308859Y-160474733D01*
X206389415Y-160209173D01*
X206416616Y-159933000D01*
X206389415Y-159656827D01*
X206308859Y-159391267D01*
X206178042Y-159146526D01*
X206001992Y-158932008D01*
X205787474Y-158755958D01*
X205542733Y-158625141D01*
X205293284Y-158549472D01*
X208880200Y-158549472D01*
X208880200Y-158856528D01*
X208940104Y-159157685D01*
X209057610Y-159441369D01*
X209228201Y-159696677D01*
X209445323Y-159913799D01*
X209700631Y-160084390D01*
X209984315Y-160201896D01*
X210285472Y-160261800D01*
X210592528Y-160261800D01*
X210893685Y-160201896D01*
X211177369Y-160084390D01*
X211432677Y-159913799D01*
X211649799Y-159696677D01*
X211820390Y-159441369D01*
X211937896Y-159157685D01*
X211997800Y-158856528D01*
X211997800Y-158549472D01*
X211937896Y-158248315D01*
X211820390Y-157964631D01*
X211649799Y-157709323D01*
X211432677Y-157492201D01*
X211177369Y-157321610D01*
X210893685Y-157204104D01*
X210592528Y-157144200D01*
X210285472Y-157144200D01*
X209984315Y-157204104D01*
X209700631Y-157321610D01*
X209445323Y-157492201D01*
X209228201Y-157709323D01*
X209057610Y-157964631D01*
X208940104Y-158248315D01*
X208880200Y-158549472D01*
X205293284Y-158549472D01*
X205277173Y-158544585D01*
X205070203Y-158524200D01*
X204631797Y-158524200D01*
X204424827Y-158544585D01*
X204159267Y-158625141D01*
X203914526Y-158755958D01*
X203700008Y-158932008D01*
X203523958Y-159146526D01*
X203393141Y-159391267D01*
X203312585Y-159656827D01*
X203285384Y-159933000D01*
X203312585Y-160209173D01*
X203393141Y-160474733D01*
X203523958Y-160719474D01*
X203700008Y-160933992D01*
X203728084Y-160957034D01*
X203726518Y-160957188D01*
X203606820Y-160993498D01*
X203496506Y-161052463D01*
X203399815Y-161131815D01*
X203320463Y-161228506D01*
X203261498Y-161338820D01*
X203225188Y-161458518D01*
X203212928Y-161583000D01*
X196765213Y-161583000D01*
X196725740Y-161509153D01*
X196624819Y-161386181D01*
X196501847Y-161285260D01*
X196372248Y-161215987D01*
X196460429Y-161149049D01*
X196653496Y-160931193D01*
X196800352Y-160679858D01*
X196892476Y-160416890D01*
X196771155Y-160187000D01*
X195453000Y-160187000D01*
X195453000Y-160207000D01*
X195199000Y-160207000D01*
X195199000Y-160187000D01*
X193880845Y-160187000D01*
X193759524Y-160416890D01*
X193038800Y-160416890D01*
X193038800Y-159703110D01*
X193759524Y-159703110D01*
X193880845Y-159933000D01*
X195199000Y-159933000D01*
X195199000Y-159913000D01*
X195453000Y-159913000D01*
X195453000Y-159933000D01*
X196771155Y-159933000D01*
X196892476Y-159703110D01*
X196800352Y-159440142D01*
X196653496Y-159188807D01*
X196460429Y-158970951D01*
X196228570Y-158794947D01*
X196176528Y-158769618D01*
X196237474Y-158737042D01*
X196451992Y-158560992D01*
X196628042Y-158346474D01*
X196758859Y-158101733D01*
X196839415Y-157836173D01*
X196866616Y-157560000D01*
X196839415Y-157283827D01*
X196758859Y-157018267D01*
X196628042Y-156773526D01*
X196451992Y-156559008D01*
X196237474Y-156382958D01*
X195992733Y-156252141D01*
X195727173Y-156171585D01*
X195520203Y-156151200D01*
X195131797Y-156151200D01*
X194924827Y-156171585D01*
X194659267Y-156252141D01*
X194414526Y-156382958D01*
X194200008Y-156559008D01*
X194023958Y-156773526D01*
X193893141Y-157018267D01*
X193812585Y-157283827D01*
X193785384Y-157560000D01*
X193812585Y-157836173D01*
X193893141Y-158101733D01*
X194023958Y-158346474D01*
X194200008Y-158560992D01*
X194414526Y-158737042D01*
X194475472Y-158769618D01*
X194423430Y-158794947D01*
X194191571Y-158970951D01*
X193998504Y-159188807D01*
X193851648Y-159440142D01*
X193759524Y-159703110D01*
X193038800Y-159703110D01*
X193038800Y-151526122D01*
X193255825Y-151526122D01*
X193320425Y-151739094D01*
X193470469Y-152044329D01*
X193677178Y-152314427D01*
X193932609Y-152539008D01*
X194226946Y-152709442D01*
X194548877Y-152819179D01*
X194818000Y-152701600D01*
X194818000Y-151257000D01*
X195072000Y-151257000D01*
X195072000Y-152701600D01*
X195341123Y-152819179D01*
X195663054Y-152709442D01*
X195957391Y-152539008D01*
X196212822Y-152314427D01*
X196419531Y-152044329D01*
X196569575Y-151739094D01*
X196634175Y-151526122D01*
X196516125Y-151257000D01*
X195072000Y-151257000D01*
X194818000Y-151257000D01*
X193373875Y-151257000D01*
X193255825Y-151526122D01*
X193038800Y-151526122D01*
X193038800Y-150733878D01*
X193255825Y-150733878D01*
X193373875Y-151003000D01*
X194818000Y-151003000D01*
X194818000Y-149558400D01*
X195072000Y-149558400D01*
X195072000Y-151003000D01*
X196516125Y-151003000D01*
X196634175Y-150733878D01*
X196569575Y-150520906D01*
X196419531Y-150215671D01*
X196212822Y-149945573D01*
X195957391Y-149720992D01*
X195663054Y-149550558D01*
X195341123Y-149440821D01*
X195072000Y-149558400D01*
X194818000Y-149558400D01*
X194548877Y-149440821D01*
X194226946Y-149550558D01*
X193932609Y-149720992D01*
X193677178Y-149945573D01*
X193470469Y-150215671D01*
X193320425Y-150520906D01*
X193255825Y-150733878D01*
X193038800Y-150733878D01*
X193038800Y-147166472D01*
X198292200Y-147166472D01*
X198292200Y-147473528D01*
X198352104Y-147774685D01*
X198469610Y-148058369D01*
X198640201Y-148313677D01*
X198857323Y-148530799D01*
X198923900Y-148575284D01*
X198923901Y-154720460D01*
X198919416Y-154766000D01*
X198937315Y-154947743D01*
X198990329Y-155122502D01*
X199076416Y-155283561D01*
X199163242Y-155389359D01*
X199163245Y-155389362D01*
X199192271Y-155424730D01*
X199227639Y-155453756D01*
X199605900Y-155832017D01*
X199605901Y-157447715D01*
X199539323Y-157492201D01*
X199322201Y-157709323D01*
X199151610Y-157964631D01*
X199034104Y-158248315D01*
X198974200Y-158549472D01*
X198974200Y-158856528D01*
X199034104Y-159157685D01*
X199151610Y-159441369D01*
X199322201Y-159696677D01*
X199539323Y-159913799D01*
X199794631Y-160084390D01*
X200078315Y-160201896D01*
X200379472Y-160261800D01*
X200686528Y-160261800D01*
X200987685Y-160201896D01*
X201271369Y-160084390D01*
X201526677Y-159913799D01*
X201743799Y-159696677D01*
X201914390Y-159441369D01*
X202031896Y-159157685D01*
X202091800Y-158856528D01*
X202091800Y-158549472D01*
X202031896Y-158248315D01*
X201914390Y-157964631D01*
X201743799Y-157709323D01*
X201526677Y-157492201D01*
X201460100Y-157447716D01*
X201460100Y-155493537D01*
X201464585Y-155448000D01*
X201446685Y-155266256D01*
X201393672Y-155091498D01*
X201380074Y-155066058D01*
X201307585Y-154930439D01*
X201191730Y-154789270D01*
X201156358Y-154760241D01*
X200778100Y-154381983D01*
X200778100Y-150030000D01*
X203443497Y-150030000D01*
X203443497Y-152230000D01*
X203454286Y-152339544D01*
X203486239Y-152444878D01*
X203538127Y-152541954D01*
X203607957Y-152627043D01*
X203693046Y-152696873D01*
X203790122Y-152748761D01*
X203895456Y-152780714D01*
X204005000Y-152791503D01*
X206205000Y-152791503D01*
X206314544Y-152780714D01*
X206419878Y-152748761D01*
X206516954Y-152696873D01*
X206602043Y-152627043D01*
X206671873Y-152541954D01*
X206723761Y-152444878D01*
X206755714Y-152339544D01*
X206766503Y-152230000D01*
X206766503Y-150030000D01*
X206755714Y-149920456D01*
X206723761Y-149815122D01*
X206671873Y-149718046D01*
X206664359Y-149708890D01*
X206838524Y-149708890D01*
X206883175Y-149856099D01*
X207008359Y-150118920D01*
X207182412Y-150352269D01*
X207398645Y-150547178D01*
X207524255Y-150622000D01*
X207398645Y-150696822D01*
X207182412Y-150891731D01*
X207008359Y-151125080D01*
X206883175Y-151387901D01*
X206838524Y-151535110D01*
X206959845Y-151765000D01*
X208153000Y-151765000D01*
X208153000Y-149479000D01*
X208407000Y-149479000D01*
X208407000Y-151765000D01*
X209600155Y-151765000D01*
X209721476Y-151535110D01*
X209676825Y-151387901D01*
X209551641Y-151125080D01*
X209377588Y-150891731D01*
X209161355Y-150696822D01*
X209035745Y-150622000D01*
X209161355Y-150547178D01*
X209377588Y-150352269D01*
X209551641Y-150118920D01*
X209676825Y-149856099D01*
X209721476Y-149708890D01*
X209600155Y-149479000D01*
X208407000Y-149479000D01*
X208153000Y-149479000D01*
X206959845Y-149479000D01*
X206838524Y-149708890D01*
X206664359Y-149708890D01*
X206602043Y-149632957D01*
X206516954Y-149563127D01*
X206419878Y-149511239D01*
X206314544Y-149479286D01*
X206205000Y-149468497D01*
X204005000Y-149468497D01*
X203895456Y-149479286D01*
X203790122Y-149511239D01*
X203693046Y-149563127D01*
X203607957Y-149632957D01*
X203538127Y-149718046D01*
X203486239Y-149815122D01*
X203454286Y-149920456D01*
X203443497Y-150030000D01*
X200778100Y-150030000D01*
X200778100Y-148995110D01*
X206838524Y-148995110D01*
X206959845Y-149225000D01*
X208153000Y-149225000D01*
X208153000Y-149205000D01*
X208407000Y-149205000D01*
X208407000Y-149225000D01*
X209600155Y-149225000D01*
X209721476Y-148995110D01*
X209676825Y-148847901D01*
X209551641Y-148585080D01*
X209377588Y-148351731D01*
X209224956Y-148214151D01*
X209239544Y-148212714D01*
X209344878Y-148180761D01*
X209441954Y-148128873D01*
X209527043Y-148059043D01*
X209596873Y-147973954D01*
X209648761Y-147876878D01*
X209680714Y-147771544D01*
X209691503Y-147662000D01*
X209691503Y-145962000D01*
X209680714Y-145852456D01*
X209648761Y-145747122D01*
X209596873Y-145650046D01*
X209527043Y-145564957D01*
X209441954Y-145495127D01*
X209344878Y-145443239D01*
X209239544Y-145411286D01*
X209130000Y-145400497D01*
X207430000Y-145400497D01*
X207320456Y-145411286D01*
X207215122Y-145443239D01*
X207118046Y-145495127D01*
X207032957Y-145564957D01*
X206963127Y-145650046D01*
X206911239Y-145747122D01*
X206879286Y-145852456D01*
X206868497Y-145962000D01*
X206868497Y-147662000D01*
X206879286Y-147771544D01*
X206911239Y-147876878D01*
X206963127Y-147973954D01*
X207032957Y-148059043D01*
X207118046Y-148128873D01*
X207215122Y-148180761D01*
X207320456Y-148212714D01*
X207335044Y-148214151D01*
X207182412Y-148351731D01*
X207008359Y-148585080D01*
X206883175Y-148847901D01*
X206838524Y-148995110D01*
X200778100Y-148995110D01*
X200778100Y-148575284D01*
X200844677Y-148530799D01*
X201061799Y-148313677D01*
X201232390Y-148058369D01*
X201349896Y-147774685D01*
X201409800Y-147473528D01*
X201409800Y-147166472D01*
X201349896Y-146865315D01*
X201232390Y-146581631D01*
X201061799Y-146326323D01*
X200844677Y-146109201D01*
X200589369Y-145938610D01*
X200305685Y-145821104D01*
X200004528Y-145761200D01*
X199697472Y-145761200D01*
X199396315Y-145821104D01*
X199112631Y-145938610D01*
X198857323Y-146109201D01*
X198640201Y-146326323D01*
X198469610Y-146581631D01*
X198352104Y-146865315D01*
X198292200Y-147166472D01*
X193038800Y-147166472D01*
X193038800Y-146279157D01*
X193219586Y-146478519D01*
X193445580Y-146646037D01*
X193699913Y-146766246D01*
X193833961Y-146806904D01*
X194056000Y-146684915D01*
X194056000Y-145542000D01*
X194310000Y-145542000D01*
X194310000Y-146684915D01*
X194532039Y-146806904D01*
X194666087Y-146766246D01*
X194920420Y-146646037D01*
X195146414Y-146478519D01*
X195335385Y-146270131D01*
X195480070Y-146028881D01*
X195574909Y-145764040D01*
X195453624Y-145542000D01*
X194310000Y-145542000D01*
X194056000Y-145542000D01*
X194036000Y-145542000D01*
X194036000Y-145288000D01*
X194056000Y-145288000D01*
X194056000Y-144145085D01*
X194310000Y-144145085D01*
X194310000Y-145288000D01*
X195453624Y-145288000D01*
X195574909Y-145065960D01*
X195480070Y-144801119D01*
X195335385Y-144559869D01*
X195146414Y-144351481D01*
X194920420Y-144183963D01*
X194666087Y-144063754D01*
X194532039Y-144023096D01*
X194310000Y-144145085D01*
X194056000Y-144145085D01*
X193833961Y-144023096D01*
X193699913Y-144063754D01*
X193445580Y-144183963D01*
X193219586Y-144351481D01*
X193038800Y-144550843D01*
X193038800Y-143725000D01*
X195996928Y-143725000D01*
X196009188Y-143849482D01*
X196045498Y-143969180D01*
X196104463Y-144079494D01*
X196183815Y-144176185D01*
X196280506Y-144255537D01*
X196390820Y-144314502D01*
X196510518Y-144350812D01*
X196635000Y-144363072D01*
X197199250Y-144360000D01*
X197358000Y-144201250D01*
X197358000Y-143002000D01*
X197612000Y-143002000D01*
X197612000Y-144201250D01*
X197770750Y-144360000D01*
X198335000Y-144363072D01*
X198459482Y-144350812D01*
X198579180Y-144314502D01*
X198689494Y-144255537D01*
X198786185Y-144176185D01*
X198865537Y-144079494D01*
X198924502Y-143969180D01*
X198948966Y-143888534D01*
X199024731Y-143972588D01*
X199258080Y-144146641D01*
X199520901Y-144271825D01*
X199668110Y-144316476D01*
X199898000Y-144195155D01*
X199898000Y-143002000D01*
X200152000Y-143002000D01*
X200152000Y-144195155D01*
X200381890Y-144316476D01*
X200529099Y-144271825D01*
X200791920Y-144146641D01*
X201025269Y-143972588D01*
X201220178Y-143756355D01*
X201295000Y-143630745D01*
X201369822Y-143756355D01*
X201564731Y-143972588D01*
X201798080Y-144146641D01*
X202060901Y-144271825D01*
X202208110Y-144316476D01*
X202438000Y-144195155D01*
X202438000Y-143002000D01*
X200152000Y-143002000D01*
X199898000Y-143002000D01*
X197612000Y-143002000D01*
X197358000Y-143002000D01*
X196158750Y-143002000D01*
X196000000Y-143160750D01*
X195996928Y-143725000D01*
X193038800Y-143725000D01*
X193038800Y-142025000D01*
X195996928Y-142025000D01*
X196000000Y-142589250D01*
X196158750Y-142748000D01*
X197358000Y-142748000D01*
X197358000Y-141548750D01*
X197612000Y-141548750D01*
X197612000Y-142748000D01*
X199898000Y-142748000D01*
X199898000Y-141554845D01*
X200152000Y-141554845D01*
X200152000Y-142748000D01*
X202438000Y-142748000D01*
X202438000Y-141554845D01*
X202208110Y-141433524D01*
X202060901Y-141478175D01*
X201798080Y-141603359D01*
X201564731Y-141777412D01*
X201369822Y-141993645D01*
X201295000Y-142119255D01*
X201220178Y-141993645D01*
X201025269Y-141777412D01*
X200791920Y-141603359D01*
X200529099Y-141478175D01*
X200381890Y-141433524D01*
X200152000Y-141554845D01*
X199898000Y-141554845D01*
X199668110Y-141433524D01*
X199520901Y-141478175D01*
X199258080Y-141603359D01*
X199024731Y-141777412D01*
X198948966Y-141861466D01*
X198924502Y-141780820D01*
X198865537Y-141670506D01*
X198786185Y-141573815D01*
X198689494Y-141494463D01*
X198579180Y-141435498D01*
X198459482Y-141399188D01*
X198335000Y-141386928D01*
X197770750Y-141390000D01*
X197612000Y-141548750D01*
X197358000Y-141548750D01*
X197199250Y-141390000D01*
X196635000Y-141386928D01*
X196510518Y-141399188D01*
X196390820Y-141435498D01*
X196280506Y-141494463D01*
X196183815Y-141573815D01*
X196104463Y-141670506D01*
X196045498Y-141780820D01*
X196009188Y-141900518D01*
X195996928Y-142025000D01*
X193038800Y-142025000D01*
X193038800Y-139810740D01*
X195993964Y-139810740D01*
X196042606Y-139971107D01*
X196172764Y-140242414D01*
X196353351Y-140483116D01*
X196577427Y-140683962D01*
X196836380Y-140837234D01*
X197120259Y-140937041D01*
X197358000Y-140816992D01*
X197358000Y-139573000D01*
X197612000Y-139573000D01*
X197612000Y-140816992D01*
X197849741Y-140937041D01*
X198133620Y-140837234D01*
X198392573Y-140683962D01*
X198616649Y-140483116D01*
X198797236Y-140242414D01*
X198927394Y-139971107D01*
X198976036Y-139810740D01*
X198855378Y-139573000D01*
X197612000Y-139573000D01*
X197358000Y-139573000D01*
X196114622Y-139573000D01*
X195993964Y-139810740D01*
X193038800Y-139810740D01*
X193038800Y-138528359D01*
X193127551Y-138661185D01*
X193316815Y-138850449D01*
X193539367Y-138999153D01*
X193786653Y-139101582D01*
X194049170Y-139153800D01*
X194316830Y-139153800D01*
X194579347Y-139101582D01*
X194628408Y-139081260D01*
X195993964Y-139081260D01*
X196114622Y-139319000D01*
X197358000Y-139319000D01*
X197358000Y-138075008D01*
X197612000Y-138075008D01*
X197612000Y-139319000D01*
X198855378Y-139319000D01*
X198976036Y-139081260D01*
X198927394Y-138920893D01*
X198797236Y-138649586D01*
X198616649Y-138408884D01*
X198392573Y-138208038D01*
X198133620Y-138054766D01*
X197849741Y-137954959D01*
X197612000Y-138075008D01*
X197358000Y-138075008D01*
X197120259Y-137954959D01*
X196836380Y-138054766D01*
X196577427Y-138208038D01*
X196353351Y-138408884D01*
X196172764Y-138649586D01*
X196042606Y-138920893D01*
X195993964Y-139081260D01*
X194628408Y-139081260D01*
X194826633Y-138999153D01*
X195049185Y-138850449D01*
X195238449Y-138661185D01*
X195387153Y-138438633D01*
X195489582Y-138191347D01*
X195541800Y-137928830D01*
X195541800Y-137661170D01*
X195489582Y-137398653D01*
X195387153Y-137151367D01*
X195238449Y-136928815D01*
X195049185Y-136739551D01*
X194826633Y-136590847D01*
X194579347Y-136488418D01*
X194316830Y-136436200D01*
X194049170Y-136436200D01*
X193786653Y-136488418D01*
X193539367Y-136590847D01*
X193316815Y-136739551D01*
X193127551Y-136928815D01*
X193038800Y-137061641D01*
X193038800Y-133652862D01*
X194386200Y-133652862D01*
X194386200Y-134063138D01*
X194466241Y-134465530D01*
X194623246Y-134844576D01*
X194851183Y-135185708D01*
X195141292Y-135475817D01*
X195482424Y-135703754D01*
X195861470Y-135860759D01*
X196263862Y-135940800D01*
X196674138Y-135940800D01*
X197076530Y-135860759D01*
X197455576Y-135703754D01*
X197796708Y-135475817D01*
X198086817Y-135185708D01*
X198314754Y-134844576D01*
X198471759Y-134465530D01*
X198551800Y-134063138D01*
X198551800Y-133652862D01*
X198471759Y-133250470D01*
X198314754Y-132871424D01*
X198086817Y-132530292D01*
X197796708Y-132240183D01*
X197455576Y-132012246D01*
X197076530Y-131855241D01*
X196674138Y-131775200D01*
X196263862Y-131775200D01*
X195861470Y-131855241D01*
X195482424Y-132012246D01*
X195141292Y-132240183D01*
X194851183Y-132530292D01*
X194623246Y-132871424D01*
X194466241Y-133250470D01*
X194386200Y-133652862D01*
X193038800Y-133652862D01*
X193038800Y-128953862D01*
X194386200Y-128953862D01*
X194386200Y-129364138D01*
X194466241Y-129766530D01*
X194623246Y-130145576D01*
X194851183Y-130486708D01*
X195141292Y-130776817D01*
X195482424Y-131004754D01*
X195861470Y-131161759D01*
X196263862Y-131241800D01*
X196674138Y-131241800D01*
X197076530Y-131161759D01*
X197455576Y-131004754D01*
X197796708Y-130776817D01*
X198086817Y-130486708D01*
X198314754Y-130145576D01*
X198471759Y-129766530D01*
X198551800Y-129364138D01*
X198551800Y-129072640D01*
X199093416Y-129072640D01*
X199111315Y-129254383D01*
X199164329Y-129429142D01*
X199250416Y-129590201D01*
X199337242Y-129695999D01*
X199337245Y-129696002D01*
X199366271Y-129731370D01*
X199401638Y-129760395D01*
X202571220Y-132929977D01*
X202404140Y-133333343D01*
X202296200Y-133875997D01*
X202296200Y-134429283D01*
X202404140Y-134971937D01*
X202615873Y-135483106D01*
X202923262Y-135943146D01*
X203314494Y-136334378D01*
X203774534Y-136641767D01*
X204285703Y-136853500D01*
X204828357Y-136961440D01*
X205381643Y-136961440D01*
X205924297Y-136853500D01*
X206435466Y-136641767D01*
X206895506Y-136334378D01*
X207286738Y-135943146D01*
X207594127Y-135483106D01*
X207805860Y-134971937D01*
X207913800Y-134429283D01*
X207913800Y-133875997D01*
X207805860Y-133333343D01*
X207594127Y-132822174D01*
X207579137Y-132799739D01*
X208237706Y-132799739D01*
X208453828Y-133166498D01*
X208913705Y-133407178D01*
X209411698Y-133553515D01*
X209928671Y-133599888D01*
X210444759Y-133544513D01*
X210940126Y-133389519D01*
X211357372Y-133166498D01*
X211573494Y-132799739D01*
X209905600Y-131131845D01*
X208237706Y-132799739D01*
X207579137Y-132799739D01*
X207286738Y-132362134D01*
X206895506Y-131970902D01*
X206435466Y-131663513D01*
X205924297Y-131451780D01*
X205381643Y-131343840D01*
X204828357Y-131343840D01*
X204285703Y-131451780D01*
X203882337Y-131618860D01*
X203238788Y-130975311D01*
X207257952Y-130975311D01*
X207313327Y-131491399D01*
X207468321Y-131986766D01*
X207691342Y-132404012D01*
X208058101Y-132620134D01*
X209725995Y-130952240D01*
X210085205Y-130952240D01*
X211753099Y-132620134D01*
X212119858Y-132404012D01*
X212360538Y-131944135D01*
X212506875Y-131446142D01*
X212553248Y-130929169D01*
X212497873Y-130413081D01*
X212342879Y-129917714D01*
X212119858Y-129500468D01*
X211753099Y-129284346D01*
X210085205Y-130952240D01*
X209725995Y-130952240D01*
X208058101Y-129284346D01*
X207691342Y-129500468D01*
X207450662Y-129960345D01*
X207304325Y-130458338D01*
X207257952Y-130975311D01*
X203238788Y-130975311D01*
X202063476Y-129799999D01*
X203437106Y-129799999D01*
X203653228Y-130166758D01*
X204113105Y-130407438D01*
X204611098Y-130553775D01*
X205128071Y-130600148D01*
X205644159Y-130544773D01*
X206139526Y-130389779D01*
X206556772Y-130166758D01*
X206772894Y-129799999D01*
X205105000Y-128132105D01*
X203437106Y-129799999D01*
X202063476Y-129799999D01*
X200952100Y-128688623D01*
X200952100Y-127975571D01*
X202457352Y-127975571D01*
X202512727Y-128491659D01*
X202667721Y-128987026D01*
X202890742Y-129404272D01*
X203257501Y-129620394D01*
X204925395Y-127952500D01*
X205284605Y-127952500D01*
X206952499Y-129620394D01*
X207319258Y-129404272D01*
X207476019Y-129104741D01*
X208237706Y-129104741D01*
X209905600Y-130772635D01*
X211573494Y-129104741D01*
X211357372Y-128737982D01*
X210897495Y-128497302D01*
X210399502Y-128350965D01*
X209882529Y-128304592D01*
X209366441Y-128359967D01*
X208871074Y-128514961D01*
X208453828Y-128737982D01*
X208237706Y-129104741D01*
X207476019Y-129104741D01*
X207559938Y-128944395D01*
X207706275Y-128446402D01*
X207752648Y-127929429D01*
X207697273Y-127413341D01*
X207542279Y-126917974D01*
X207319258Y-126500728D01*
X206952499Y-126284606D01*
X205284605Y-127952500D01*
X204925395Y-127952500D01*
X203257501Y-126284606D01*
X202890742Y-126500728D01*
X202650062Y-126960605D01*
X202503725Y-127458598D01*
X202457352Y-127975571D01*
X200952100Y-127975571D01*
X200952100Y-127589463D01*
X200938685Y-127453257D01*
X200885672Y-127278498D01*
X200799585Y-127117439D01*
X200683730Y-126976270D01*
X200542560Y-126860415D01*
X200381501Y-126774328D01*
X200206742Y-126721315D01*
X200025000Y-126703415D01*
X199843257Y-126721315D01*
X199668498Y-126774328D01*
X199507439Y-126860415D01*
X199366270Y-126976270D01*
X199250415Y-127117440D01*
X199164328Y-127278499D01*
X199111315Y-127453258D01*
X199097900Y-127589464D01*
X199097901Y-129027101D01*
X199093416Y-129072640D01*
X198551800Y-129072640D01*
X198551800Y-128953862D01*
X198471759Y-128551470D01*
X198314754Y-128172424D01*
X198086817Y-127831292D01*
X197796708Y-127541183D01*
X197455576Y-127313246D01*
X197076530Y-127156241D01*
X196674138Y-127076200D01*
X196263862Y-127076200D01*
X195861470Y-127156241D01*
X195482424Y-127313246D01*
X195141292Y-127541183D01*
X194851183Y-127831292D01*
X194623246Y-128172424D01*
X194466241Y-128551470D01*
X194386200Y-128953862D01*
X193038800Y-128953862D01*
X193038800Y-124254862D01*
X194386200Y-124254862D01*
X194386200Y-124665138D01*
X194466241Y-125067530D01*
X194623246Y-125446576D01*
X194851183Y-125787708D01*
X195141292Y-126077817D01*
X195482424Y-126305754D01*
X195861470Y-126462759D01*
X196263862Y-126542800D01*
X196674138Y-126542800D01*
X197076530Y-126462759D01*
X197455576Y-126305754D01*
X197756024Y-126105001D01*
X203437106Y-126105001D01*
X205105000Y-127772895D01*
X206772894Y-126105001D01*
X206556772Y-125738242D01*
X206096895Y-125497562D01*
X205598902Y-125351225D01*
X205081929Y-125304852D01*
X204565841Y-125360227D01*
X204070474Y-125515221D01*
X203653228Y-125738242D01*
X203437106Y-126105001D01*
X197756024Y-126105001D01*
X197796708Y-126077817D01*
X198086817Y-125787708D01*
X198314754Y-125446576D01*
X198471759Y-125067530D01*
X198551800Y-124665138D01*
X198551800Y-124254862D01*
X198471759Y-123852470D01*
X198314754Y-123473424D01*
X198086817Y-123132292D01*
X197796708Y-122842183D01*
X197455576Y-122614246D01*
X197076530Y-122457241D01*
X196674138Y-122377200D01*
X196263862Y-122377200D01*
X195861470Y-122457241D01*
X195482424Y-122614246D01*
X195141292Y-122842183D01*
X194851183Y-123132292D01*
X194623246Y-123473424D01*
X194466241Y-123852470D01*
X194386200Y-124254862D01*
X193038800Y-124254862D01*
X193038800Y-122585997D01*
X193078085Y-122185341D01*
X193185440Y-121829761D01*
X193359816Y-121501807D01*
X193594571Y-121213969D01*
X193880768Y-120977208D01*
X194207497Y-120800546D01*
X194562315Y-120690711D01*
X194961075Y-120648800D01*
X215952393Y-120648800D01*
X215922957Y-120672957D01*
G37*
G04 #@! TD.AperFunction*
M02*
