%FSLAX45Y45*%
G04 Gerber Fmt 4.5, Leading zero omitted, Abs format (unit mm)*
G04 Created by KiCad (PCBNEW 5.1.10-1.fc33) date 2021-05-23 01:00:37*
%MOMM*%
%LPD*%
G01*
G04 APERTURE LIST*
%TA.AperFunction,Profile*%
%ADD10C,0.150000*%
%TD*%
%ADD11C,0.200000*%
%ADD12C,0.300000*%
G04 APERTURE END LIST*
D10*
X19494500Y-12001500D02*
X21907500Y-12001500D01*
X19240500Y-16573500D02*
X19240500Y-12255500D01*
X21907500Y-16573500D02*
X19240500Y-16573500D01*
X21907500Y-12001500D02*
X21907500Y-16573500D01*
X19494500Y-12001500D02*
G75*
G03*
X19240500Y-12255500I0J-254000D01*
G01*
D11*
D12*
X19519428Y-17046714D02*
X19519428Y-16746714D01*
X19590857Y-16746714D01*
X19633714Y-16761000D01*
X19662286Y-16789572D01*
X19676571Y-16818143D01*
X19690857Y-16875286D01*
X19690857Y-16918143D01*
X19676571Y-16975286D01*
X19662286Y-17003857D01*
X19633714Y-17032429D01*
X19590857Y-17046714D01*
X19519428Y-17046714D01*
X19819428Y-17046714D02*
X19819428Y-16846714D01*
X19819428Y-16903857D02*
X19833714Y-16875286D01*
X19848000Y-16861000D01*
X19876571Y-16846714D01*
X19905143Y-16846714D01*
X20005143Y-17046714D02*
X20005143Y-16846714D01*
X20005143Y-16746714D02*
X19990857Y-16761000D01*
X20005143Y-16775286D01*
X20019428Y-16761000D01*
X20005143Y-16746714D01*
X20005143Y-16775286D01*
X20190857Y-17046714D02*
X20162286Y-17032429D01*
X20148000Y-17003857D01*
X20148000Y-16746714D01*
X20348000Y-17046714D02*
X20319428Y-17032429D01*
X20305143Y-17003857D01*
X20305143Y-16746714D01*
X20690857Y-17046714D02*
X20690857Y-16746714D01*
X20790857Y-16961000D01*
X20890857Y-16746714D01*
X20890857Y-17046714D01*
X21162286Y-17046714D02*
X21162286Y-16889572D01*
X21148000Y-16861000D01*
X21119428Y-16846714D01*
X21062286Y-16846714D01*
X21033714Y-16861000D01*
X21162286Y-17032429D02*
X21133714Y-17046714D01*
X21062286Y-17046714D01*
X21033714Y-17032429D01*
X21019428Y-17003857D01*
X21019428Y-16975286D01*
X21033714Y-16946714D01*
X21062286Y-16932429D01*
X21133714Y-16932429D01*
X21162286Y-16918143D01*
X21305143Y-16846714D02*
X21305143Y-17146714D01*
X21305143Y-16861000D02*
X21333714Y-16846714D01*
X21390857Y-16846714D01*
X21419428Y-16861000D01*
X21433714Y-16875286D01*
X21448000Y-16903857D01*
X21448000Y-16989572D01*
X21433714Y-17018143D01*
X21419428Y-17032429D01*
X21390857Y-17046714D01*
X21333714Y-17046714D01*
X21305143Y-17032429D01*
X21576571Y-17018143D02*
X21590857Y-17032429D01*
X21576571Y-17046714D01*
X21562286Y-17032429D01*
X21576571Y-17018143D01*
X21576571Y-17046714D01*
X21576571Y-16861000D02*
X21590857Y-16875286D01*
X21576571Y-16889572D01*
X21562286Y-16875286D01*
X21576571Y-16861000D01*
X21576571Y-16889572D01*
M02*
